<?xml version="1.0" encoding="UTF-8"?>
<svg version="1.1" xmlns="http://www.w3.org/2000/svg" width="1024" height="1024">
<path d="M0 0 C0.17745518 22.40087926 0.34310875 44.80181824 0.49477577 67.20288754 C0.56547403 77.60446504 0.64001023 88.00598841 0.72363281 98.4074707 C0.79652213 107.47510351 0.86215817 116.5427551 0.91914403 125.6105023 C0.9495595 130.41023954 0.98356639 135.20988984 1.02626419 140.00953484 C1.06637425 144.53118989 1.09675304 149.052808 1.11981392 153.57458115 C1.12994616 155.23014826 1.14357021 156.88569846 1.16103554 158.54120445 C1.40663118 182.3527822 1.40663118 182.3527822 -7.68359375 191.73828125 C-12.44682228 196.04598272 -17.66257924 199.81087337 -22.81640625 203.6328125 C-29.71047648 208.75895552 -36.4898653 214.03809636 -43.26171875 219.32421875 C-52.44264653 226.48960243 -61.68071526 233.56446452 -71.01904297 240.5234375 C-74.41208828 243.05254004 -77.80021437 245.58819112 -81.1875 248.125 C-81.84524414 248.61661621 -82.50298828 249.10823242 -83.18066406 249.61474609 C-86.41823464 252.04010665 -89.63683579 254.48552036 -92.82421875 256.9765625 C-93.72394409 257.67821533 -93.72394409 257.67821533 -94.6418457 258.39404297 C-95.77009453 259.27674391 -96.89511816 260.16358794 -98.01635742 261.05517578 C-101.78000129 264 -101.78000129 264 -104 264 C-104 264.66 -104 265.32 -104 266 C-105.32 266.33 -106.64 266.66 -108 267 C-108.98219926 247.82031084 -109.16405913 228.67060542 -109.16725707 209.47217178 C-109.1679778 207.03185051 -109.17013049 204.59153453 -109.17275429 202.1512146 C-109.18192325 193.60796766 -109.18609825 185.06473607 -109.18530273 176.52148438 C-109.18469804 168.59756237 -109.19534761 160.67370756 -109.2110464 152.74980259 C-109.22413703 145.89485896 -109.22948628 139.03993737 -109.22884732 132.18498135 C-109.22859362 128.11223896 -109.23137672 124.03955713 -109.24202538 119.96682739 C-109.25173709 116.15146395 -109.25176466 112.33621887 -109.24450874 108.52085114 C-109.24346808 107.12813391 -109.24579476 105.73540914 -109.2518692 104.34270477 C-109.29670228 93.34776359 -109.24003392 82.42203491 -101.125 74.0703125 C-95.98656108 69.35395963 -90.41626961 65.28933688 -84.7421875 61.24902344 C-81.18121336 58.69606048 -77.65401079 56.09687363 -74.125 53.5 C-72.91191162 52.60740479 -72.91191162 52.60740479 -71.67431641 51.69677734 C-65.57010128 47.19074809 -59.5258309 42.61015048 -53.5 38 C-44.54689233 31.1510865 -35.50660063 24.43145967 -26.41308594 17.77050781 C-23.83697584 15.88038737 -21.26562079 13.98393929 -18.6953125 12.0859375 C-17.39134521 11.12324951 -17.39134521 11.12324951 -16.06103516 10.14111328 C-14.3911811 8.90806376 -12.72157283 7.67468129 -11.05224609 6.44091797 C-10.30281738 5.88807129 -9.55338867 5.33522461 -8.78125 4.765625 C-8.12189453 4.27868164 -7.46253906 3.79173828 -6.78320312 3.29003906 C-2.23542771 0 -2.23542771 0 0 0 Z " fill="#6D39F9" transform="translate(384,365)"/>
<path d="M0 0 C5.38996538 2.88300474 9.94612893 6.20747003 14.625 10.125 C16.02502956 11.27857319 17.42608718 12.43089971 18.828125 13.58203125 C19.52357422 14.1538916 20.21902344 14.72575195 20.93554688 15.31494141 C24.04943617 17.85657622 27.20044749 20.3472234 30.375 22.8125 C31.93347656 24.02873047 31.93347656 24.02873047 33.5234375 25.26953125 C35.76969939 27.19092265 35.76969939 27.19092265 38 27 C39.18779741 28.16446567 40.37043961 29.33475903 41.5234375 30.53369141 C44.15640617 33.14837557 47.09000585 35.39154131 50 37.6875 C50.66153076 38.2129541 51.32306152 38.7384082 52.00463867 39.27978516 C57.67053428 43.76825486 63.39721587 48.17503292 69.13525391 52.57080078 C72.92860231 55.4781406 76.71716327 58.39149348 80.5 61.3125 C81.26610596 61.89950684 82.03221191 62.48651367 82.8215332 63.09130859 C90.03946678 68.67521876 95.06718057 72.87981059 97 82 C98.07493662 92.90383593 98.14103672 103.83393715 98.11352539 114.77929688 C98.1132424 116.38754779 98.11340343 117.99579884 98.1139679 119.60404968 C98.11425151 123.91495986 98.10842617 128.22584146 98.10139394 132.53674507 C98.09508694 137.06237768 98.09455085 141.58801114 98.09336853 146.11364746 C98.09027667 154.65899375 98.08209257 163.20432704 98.07201904 171.74966764 C98.0607908 181.4886666 98.05533064 191.22766621 98.05032361 200.96667004 C98.03990786 220.97778724 98.02235052 240.9888928 98 261 C97.34 261.33 96.68 261.66 96 262 C86.87636244 255.07915849 77.94413042 247.94812221 69.07910156 240.69970703 C56.86541467 230.69500038 56.86541467 230.69500038 44.4609375 220.9296875 C38.88084397 216.55418559 33.40846377 212.04262348 27.91552734 207.55859375 C26.2057266 206.16739213 24.48971656 204.78457226 22.76953125 203.40625 C9.98637054 193.10919365 0.8607597 183.12566701 -1.52485657 166.29769897 C-2.26669536 159.39237127 -2.14794492 152.45772215 -2.14526367 145.52197266 C-2.14826015 143.96888143 -2.1516638 142.41579094 -2.15544128 140.86270142 C-2.16422877 136.66894779 -2.16661698 132.4752146 -2.16725707 128.28145266 C-2.16796976 125.66035406 -2.17010806 123.03926061 -2.17275429 120.4181633 C-2.18198534 111.27242454 -2.18609137 102.1267003 -2.18530273 92.98095703 C-2.18470027 84.45513183 -2.19529072 75.92936954 -2.2110464 67.40356028 C-2.22410401 60.07685028 -2.22948749 52.75016093 -2.22884732 45.42343938 C-2.22859212 41.04995655 -2.2314569 36.67652987 -2.24202538 32.30305862 C-2.25167815 28.19737382 -2.25180508 24.09179929 -2.24450874 19.98611069 C-2.24345987 18.47800791 -2.24584366 16.96989835 -2.2518692 15.46180725 C-2.25954855 13.40723778 -2.25497195 11.35305318 -2.24723816 9.29849243 C-2.24778293 8.14780085 -2.24832769 6.99710926 -2.24888897 5.81154823 C-2 3 -2 3 0 0 Z " fill="#15A5FD" transform="translate(167,369)"/>
<path d="M0 0 C1.90625 1.9140625 1.90625 1.9140625 3.5 4.625 C4.49580078 6.24728516 4.49580078 6.24728516 5.51171875 7.90234375 C5.89247559 8.53640137 6.27323242 9.17045898 6.66552734 9.82373047 C9.43924951 14.34714053 12.4000274 18.752747 15.3125 23.1875 C20.10445649 30.53410879 24.87745354 37.89282955 29.63354492 45.26269531 C32.54719461 49.77144018 35.48046376 54.26713959 38.421875 58.7578125 C38.80884552 59.34876205 39.19581604 59.93971161 39.59451294 60.54856873 C41.53723083 63.51491058 43.48129535 66.48035803 45.42724609 69.44458008 C46.13445801 70.52376709 46.84166992 71.6029541 47.5703125 72.71484375 C48.20727051 73.68542725 48.84422852 74.65601074 49.50048828 75.65600586 C51 78 51 78 52 80 C52.33 53.6 52.66 27.2 53 0 C61.25 0 69.5 0 78 0 C77.34 0.33 76.68 0.66 76 1 C76 39.61 76 78.22 76 118 C77.485 118.495 77.485 118.495 79 119 C75.82212459 120.0592918 73.57411057 120.11458939 70.23828125 120.09765625 C69.12001953 120.09443359 68.00175781 120.09121094 66.84960938 120.08789062 C65.68236328 120.07951172 64.51511719 120.07113281 63.3125 120.0625 C62.13365234 120.05798828 60.95480469 120.05347656 59.74023438 120.04882812 C56.82677211 120.03703273 53.91341137 120.0205727 51 120 C51 119.01 51 118.02 51 117 C50.16896577 115.22500267 50.16896577 115.22500267 48.98828125 113.41796875 C48.55966797 112.73283203 48.13105469 112.04769531 47.68945312 111.34179688 C47.23505859 110.63087891 46.78066406 109.91996094 46.3125 109.1875 C45.87744141 108.48818359 45.44238281 107.78886719 44.99414062 107.06835938 C42.93055481 103.80025088 40.82678347 100.6963062 38.31640625 97.75390625 C36.36773896 95.43719387 34.98285468 93.42487162 33.625 90.75 C30.41170012 84.74031573 26.50866952 79.17879357 22.2890625 73.83203125 C21 72 21 72 21 70 C20.01 69.67 19.02 69.34 18 69 C18 68.34 18 67.68 18 67 C16.17159496 64.07455194 14.44284311 61.44284311 12 59 C10.75105118 56.72300487 9.58147001 54.41350171 8.4140625 52.09375 C6.83204827 49.75132009 5.5987577 49.01738599 3 48 C3.33 47.34 3.66 46.68 4 46 C3.01 44.68 2.02 43.36 1 42 C0.67 67.74 0.34 93.48 0 120 C-7.92 120 -15.84 120 -24 120 C-24 80.4 -24 40.8 -24 0 C-7 -1 -7 -1 0 0 Z " fill="#1B2E37" transform="translate(480,382)"/>
<path d="M0 0 C9.18280275 6.7980614 14.79296841 17.09912932 16.69140625 28.27734375 C17.39424056 34.09681187 17.52757887 39.86066932 17.31640625 45.71484375 C10.67692884 46.93313516 4.11718814 46.84173785 -2.6171875 46.8125 C-4.46679832 46.81037758 -4.46679832 46.81037758 -6.35377502 46.80821228 C-10.2762397 46.80263316 -14.19864644 46.79008443 -18.12109375 46.77734375 C-20.78710854 46.77176073 -23.45312279 46.76776362 -26.11914062 46.76367188 C-32.64064463 46.75267056 -39.16211505 46.7359532 -45.68359375 46.71484375 C-45.41798716 48.30148867 -45.13776767 49.88569107 -44.8515625 51.46875 C-44.6971167 52.35119385 -44.5426709 53.2336377 -44.38354492 54.14282227 C-42.88568275 59.64682575 -39.26951107 62.73157501 -34.55859375 65.65234375 C-28.10327024 67.94248069 -20.38472211 67.85184962 -14.12109375 65.08984375 C-10.02449456 63.02832932 -10.05357306 61.45480238 -7.68359375 56.71484375 C0.56640625 56.71484375 8.81640625 56.71484375 17.31640625 56.71484375 C15.05486779 63.49945913 15.05486779 63.49945913 12.94140625 66.77734375 C12.34199219 67.72287109 12.34199219 67.72287109 11.73046875 68.6875 C5.28487335 77.92856081 -3.57120755 83.61693013 -14.68359375 85.71484375 C-29.83717941 88.22086308 -43.04973462 84.58356391 -55.68359375 76.15234375 C-58.59062853 73.79037799 -59.19140814 72.91572818 -60.68359375 69.71484375 C-61.65690556 68.16947402 -62.63652945 66.6280689 -63.62109375 65.08984375 C-70.77213624 52.99076941 -71.3989107 39.63917752 -69.02734375 25.91796875 C-65.69229633 13.90029787 -59.27961122 4.4004262 -48.68359375 -2.28515625 C-32.9438584 -10.15502393 -14.80663166 -9.47717113 0 0 Z M-40.05859375 15.02734375 C-44.44178648 19.51489822 -45.68359375 22.41843709 -45.68359375 28.71484375 C-32.81359375 28.71484375 -19.94359375 28.71484375 -6.68359375 28.71484375 C-7.23771616 21.27973951 -7.23771616 21.27973951 -10.99609375 16.33984375 C-11.59035156 15.69273437 -12.18460938 15.045625 -12.796875 14.37890625 C-20.75412404 7.36071145 -32.03010681 8.90190557 -40.05859375 15.02734375 Z " fill="#1A2C34" transform="translate(636.68359375,418.28515625)"/>
<path d="M0 0 C9.73642438 9.58242118 12.43459808 21.80661845 13.2421875 35.09375 C13.2241331 37.95356727 12.89965484 40.41749052 12.22265625 43.1875 C5.58281547 44.1888208 -0.90083546 44.33306499 -7.609375 44.3203125 C-9.27972054 44.32174759 -9.27972054 44.32174759 -10.98381042 44.32321167 C-13.32441261 44.3238892 -15.66501671 44.32206485 -18.00561523 44.31787109 C-21.59558283 44.3124914 -25.18542676 44.31784357 -28.77539062 44.32421875 C-31.05338569 44.32355839 -33.33138068 44.3222781 -35.609375 44.3203125 C-36.68435745 44.32233673 -37.7593399 44.32436096 -38.86689758 44.32644653 C-39.86190781 44.32329437 -40.85691803 44.32014221 -41.88208008 44.31689453 C-43.19490715 44.31570114 -43.19490715 44.31570114 -44.53425598 44.31448364 C-46.77734375 44.1875 -46.77734375 44.1875 -49.77734375 43.1875 C-49.77734375 45.1675 -49.77734375 47.1475 -49.77734375 49.1875 C-49.11734375 49.5175 -48.45734375 49.8475 -47.77734375 50.1875 C-47.55046875 51.074375 -47.32359375 51.96125 -47.08984375 52.875 C-45.30590506 57.37732144 -42.91080807 59.71200566 -38.77734375 62.1875 C-32.09122896 64.74099107 -25.4804545 64.6564599 -18.77734375 62.1875 C-15.28001967 60.10187469 -13.09679005 58.1458389 -11.77734375 54.1875 C-3.85734375 53.8575 4.06265625 53.5275 12.22265625 53.1875 C11.32000892 58.60338398 10.7251156 60.50238157 7.84765625 64.8125 C7.24179687 65.73289062 6.6359375 66.65328125 6.01171875 67.6015625 C5.12613281 68.88160156 5.12613281 68.88160156 4.22265625 70.1875 C3.80113281 70.88359375 3.37960937 71.5796875 2.9453125 72.296875 C0.44418041 75.04188165 -2.63144046 76.32806819 -5.96484375 77.8125 C-6.59970703 78.1115625 -7.23457031 78.410625 -7.88867188 78.71875 C-20.65498195 84.55330223 -34.52440546 85.06531757 -47.77734375 80.1875 C-57.13894069 75.81966189 -66.78563926 68.1544455 -70.46484375 58.1875 C-70.84189453 57.1975 -70.84189453 57.1975 -71.2265625 56.1875 C-71.77734375 54.1875 -71.77734375 54.1875 -71.77734375 50.1875 C-72.76734375 49.8575 -73.75734375 49.5275 -74.77734375 49.1875 C-74.11734375 49.1875 -73.45734375 49.1875 -72.77734375 49.1875 C-72.77734375 47.8675 -72.77734375 46.5475 -72.77734375 45.1875 C-73.43734375 44.8575 -74.09734375 44.5275 -74.77734375 44.1875 C-74.42094261 35.08083648 -73.64489167 26.89308137 -70.77734375 18.1875 C-70.40609375 17.011875 -70.03484375 15.83625 -69.65234375 14.625 C-66.4296448 5.64748148 -58.26196235 -1.77917669 -50.02734375 -6.1875 C-33.27751357 -13.900408 -14.07973812 -12.1384747 0 0 Z M-45.65234375 14.0625 C-47.7540663 17.15326846 -48.98529315 19.54406726 -49.77734375 23.1875 C-49.44734375 24.5075 -49.11734375 25.8275 -48.77734375 27.1875 C-35.90734375 26.8575 -23.03734375 26.5275 -9.77734375 26.1875 C-12.66402692 15.37226969 -12.66402692 15.37226969 -20.40234375 8.875 C-29.415848 4.77033728 -39.02894914 6.72462842 -45.65234375 14.0625 Z " fill="#192B34" transform="translate(612.77734375,556.8125)"/>
<path d="M0 0 C4.72367455 4.14289489 7.59163706 10.78908591 8.8125 16.875 C8.9322597 19.03855147 8.99904257 21.20523974 9.03369141 23.37182617 C9.05686432 24.68966599 9.08003723 26.0075058 9.10391235 27.36528015 C9.12421344 28.79950615 9.14425742 30.23373581 9.1640625 31.66796875 C9.18718514 33.13959666 9.21057554 34.61122039 9.23422241 36.08283997 C9.28259931 39.16187878 9.32754723 42.24094396 9.37011719 45.32006836 C9.42509753 49.27487878 9.48890881 53.22948957 9.55529213 57.18412304 C9.60524283 60.21998611 9.65041618 63.25590573 9.69413376 66.2918644 C9.71575093 67.75079989 9.73890589 69.20971341 9.7635994 70.66860008 C9.79731448 72.70111074 9.82389168 74.73373608 9.85009766 76.76635742 C9.86706696 77.9245549 9.88403625 79.08275238 9.90151978 80.27604675 C9.8125 82.875 9.8125 82.875 8.8125 83.875 C7.3237814 83.96169432 5.831055 83.98203494 4.33984375 83.97265625 C3.44072266 83.96943359 2.54160156 83.96621094 1.61523438 83.96289062 C0.19694336 83.95032227 0.19694336 83.95032227 -1.25 83.9375 C-2.6740918 83.93073242 -2.6740918 83.93073242 -4.12695312 83.92382812 C-6.48053065 83.9120011 -8.83398477 83.89552025 -11.1875 83.875 C-11.8475 81.565 -12.5075 79.255 -13.1875 76.875 C-14.156875 77.4525 -15.12625 78.03 -16.125 78.625 C-25.19831814 83.7966073 -32.83457841 86.0577495 -43.25 86.125 C-44.05244141 86.145625 -44.85488281 86.16625 -45.68164062 86.1875 C-50.2043579 86.21752634 -52.7980231 86.13727798 -56.1875 82.875 C-57.46367188 82.02421875 -57.46367188 82.02421875 -58.765625 81.15625 C-60.08820312 80.27453125 -60.08820312 80.27453125 -61.4375 79.375 C-62.32953125 78.7871875 -63.2215625 78.199375 -64.140625 77.59375 C-65.15382813 76.74296875 -65.15382813 76.74296875 -66.1875 75.875 C-66.1875 74.885 -66.1875 73.895 -66.1875 72.875 C-66.8475 72.545 -67.5075 72.215 -68.1875 71.875 C-70.93746127 64.8473212 -71.43350491 56.85025164 -69.0625 49.625 C-65.36410091 41.29081956 -59.51112288 37.14826578 -51.1875 33.875 C-44.89921441 31.94904676 -38.46779213 30.53749915 -32.0625 29.0625 C-30.32525228 28.65282988 -28.58827022 28.24203147 -26.8515625 27.83007812 C-22.63315841 26.83201832 -18.41145373 25.84929305 -14.1875 24.875 C-14.1359375 23.616875 -14.084375 22.35875 -14.03125 21.0625 C-14.00224609 20.35480469 -13.97324219 19.64710938 -13.94335938 18.91796875 C-14.35347454 15.48612505 -16.60893367 13.93785307 -19.1875 11.875 C-19.5175 12.535 -19.8475 13.195 -20.1875 13.875 C-21.5075 13.215 -22.8275 12.555 -24.1875 11.875 C-24.1875 11.545 -24.1875 11.215 -24.1875 10.875 C-32.23984591 10.28973442 -32.23984591 10.28973442 -39.1875 13.875 C-41.98681695 16.99731506 -43.23504913 19.97009827 -45.1875 23.875 C-52.1175 23.875 -59.0475 23.875 -66.1875 23.875 C-65.15999566 13.59995658 -63.98708387 7.46131527 -56.1875 0.875 C-55.59582031 0.3696875 -55.00414062 -0.135625 -54.39453125 -0.65625 C-39.0013427 -12.43940372 -15.40486054 -10.26990703 0 0 Z M-27 44.5625 C-27.76892578 44.72427734 -28.53785156 44.88605469 -29.33007812 45.05273438 C-35.55191458 46.45461651 -41.84416601 48.31863565 -46.25 53.125 C-47.51269426 56.82890317 -47.70181754 60.2129725 -46.1875 63.875 C-43.38112944 66.83264332 -41.72393301 67.79411875 -37.6640625 68.40625 C-26.64378415 68.38522075 -26.64378415 68.38522075 -17.703125 62.37890625 C-13.83532609 58.02220018 -13.05817388 54.86772003 -13.125 49.1875 C-13.13402344 48.19363281 -13.14304687 47.19976563 -13.15234375 46.17578125 C-13.16394531 45.41652344 -13.17554688 44.65726563 -13.1875 43.875 C-18.09240065 42.35143367 -22.14374409 43.43565614 -27 44.5625 Z " fill="#192C35" transform="translate(703.1875,554.125)"/>
<path d="M0 0 C9.01229185 9.94394227 9.43572737 21.85846203 9.29296875 34.6328125 C9.2873614 36.12067229 9.2830967 37.60853768 9.28010559 39.09640503 C9.26874625 42.97953046 9.23935801 46.86230992 9.20599365 50.74530029 C9.17509854 54.72077761 9.16155906 58.69631178 9.14648438 62.671875 C9.11447793 70.44807301 9.06339219 78.22398771 9 86 C8.67 85.34 8.34 84.68 8 84 C7.36908447 84.00523682 6.73816895 84.01047363 6.08813477 84.01586914 C3.24626653 84.03657826 0.40441412 84.04964066 -2.4375 84.0625 C-3.92733398 84.07506836 -3.92733398 84.07506836 -5.44726562 84.08789062 C-6.39150391 84.09111328 -7.33574219 84.09433594 -8.30859375 84.09765625 C-9.18314209 84.10289307 -10.05769043 84.10812988 -10.95874023 84.11352539 C-13 84 -13 84 -14 83 C-14.08764866 81.03553906 -14.10696005 79.06795578 -14.09765625 77.1015625 C-14.09443359 75.90015625 -14.09121094 74.69875 -14.08789062 73.4609375 C-14.07532227 71.56214844 -14.07532227 71.56214844 -14.0625 69.625 C-14.05798828 68.366875 -14.05347656 67.10875 -14.04882812 65.8125 C-14.04007275 63.47606479 -14.02927729 61.13963579 -14.01586914 58.80322266 C-14.00491853 56.86883887 -14 54.93441478 -14 53 C-13.97715814 51.42707457 -13.95363889 49.85415893 -13.9296875 48.28125 C-13.15631784 32.10694846 -13.15631784 32.10694846 -17.6875 16.9375 C-21.70519373 13.57132417 -25.86207643 12.72671135 -31 13.125 C-35.94766144 13.97837571 -39.98564781 15.63161015 -43.2890625 19.515625 C-49.8076006 30.30169524 -47.08144427 47.33450974 -46.96386719 59.39331055 C-46.90851944 66.98876425 -47.22095893 74.44347556 -48 82 C-46.515 82.495 -46.515 82.495 -45 83 C-47.71009782 83.90336594 -49.53782605 84.16958326 -52.34375 84.28125 C-53.17777344 84.31863281 -54.01179687 84.35601563 -54.87109375 84.39453125 C-56.62369792 84.46484375 -58.37630208 84.53515625 -60.12890625 84.60546875 C-60.96292969 84.64285156 -61.79695312 84.68023438 -62.65625 84.71875 C-63.41744141 84.74904297 -64.17863281 84.77933594 -64.96289062 84.81054688 C-67.20129649 84.9409768 -67.20129649 84.9409768 -70 86 C-70.73623834 80.72898679 -71.12811106 75.65800198 -71.1328125 70.32421875 C-71.13424759 69.28646049 -71.13424759 69.28646049 -71.13571167 68.22773743 C-71.1363861 66.78162545 -71.13458384 65.3355103 -71.13037109 63.8894043 C-71.12497085 61.67555018 -71.13036203 59.46189514 -71.13671875 57.24804688 C-71.13605864 55.83593705 -71.13477886 54.42382736 -71.1328125 53.01171875 C-71.13168457 51.73772217 -71.13055664 50.46372559 -71.12939453 49.15112305 C-71 46 -71 46 -70 43 C-70.66 42.67 -71.32 42.34 -72 42 C-71.34 42 -70.68 42 -70 42 C-70.495 40.515 -70.495 40.515 -71 39 C-71.09110047 37.54762517 -71.12789479 36.09145887 -71.12939453 34.63623047 C-71.13254669 33.75877167 -71.13569885 32.88131287 -71.13894653 31.9772644 C-71.1369223 31.03343903 -71.13489807 30.08961365 -71.1328125 29.1171875 C-71.13376923 28.14717804 -71.13472595 27.17716858 -71.13571167 26.17776489 C-71.13639208 24.12843765 -71.13454749 22.07910825 -71.13037109 20.02978516 C-71.12500934 16.8804851 -71.13032674 13.73132692 -71.13671875 10.58203125 C-71.13605817 8.59374968 -71.13477743 6.60546821 -71.1328125 4.6171875 C-71.13483673 3.66931366 -71.13686096 2.72143982 -71.13894653 1.74484253 C-71.13579437 0.87368805 -71.13264221 0.00253357 -71.12939453 -0.89501953 C-71.12820114 -2.0505986 -71.12820114 -2.0505986 -71.12698364 -3.22952271 C-71 -5 -71 -5 -70 -6 C-66.36173954 -6.27898825 -62.71019202 -6.23177293 -59.0625 -6.25 C-57.52045898 -6.2809375 -57.52045898 -6.2809375 -55.94726562 -6.3125 C-54.96564453 -6.31765625 -53.98402344 -6.3228125 -52.97265625 -6.328125 C-51.61539429 -6.34214355 -51.61539429 -6.34214355 -50.23071289 -6.35644531 C-49.49457764 -6.23881836 -48.75844238 -6.12119141 -48 -6 C-47.01 -4.515 -47.01 -4.515 -46 -3 C-46.33 -2.67 -46.66 -2.34 -47 -2 C-47.04092937 0.33297433 -47.04241723 2.66705225 -47 5 C-46.360625 4.113125 -45.72125 3.22625 -45.0625 2.3125 C-41.76643567 -1.68445158 -37.58304213 -3.73999298 -33 -6 C-32.34 -6.33 -31.68 -6.66 -31 -7 C-19.68765395 -9.19162869 -9.03542645 -7.40270904 0 0 Z " fill="#172B34" transform="translate(860,554)"/>
<path d="M0 0 C4.18601536 -0.29191181 8.36941211 -0.46845805 12.5625 -0.625 C13.74392578 -0.70878906 14.92535156 -0.79257812 16.14257812 -0.87890625 C24.76774617 -1.1205076 24.76774617 -1.1205076 28.2722168 2.06616211 C30.07969095 4.63361609 31.56827361 7.2081468 33 10 C34.02673828 11.58748047 34.02673828 11.58748047 35.07421875 13.20703125 C36.15773271 14.95691942 37.24106341 16.70692107 38.32421875 18.45703125 C40.07192472 21.10914451 42.00256105 23.53272677 44 26 C46.48089404 22.20946091 48.95942196 18.41738054 51.4375 14.625 C52.14455078 13.54476563 52.85160156 12.46453125 53.58007812 11.3515625 C54.25361328 10.3203125 54.92714844 9.2890625 55.62109375 8.2265625 C56.2442749 7.27346191 56.86745605 6.32036133 57.50952148 5.33837891 C58.99362565 3.09910806 58.99362565 3.09910806 60 1 C63.31335518 0.09205974 66.44118745 -0.11973427 69.86328125 -0.09765625 C71.19262695 -0.09282227 71.19262695 -0.09282227 72.54882812 -0.08789062 C73.9168457 -0.07532227 73.9168457 -0.07532227 75.3125 -0.0625 C76.24384766 -0.05798828 77.17519531 -0.05347656 78.13476562 -0.04882812 C80.42324373 -0.03709234 82.71158808 -0.02067363 85 0 C85 3.28475637 84.67160469 3.83004015 82.83203125 6.37890625 C82.1193811 7.37724487 82.1193811 7.37724487 81.39233398 8.39575195 C80.87098877 9.11077881 80.34964355 9.82580566 79.8125 10.5625 C79.01404663 11.67467896 79.01404663 11.67467896 78.19946289 12.80932617 C76.47284292 15.21100047 74.73641683 17.60540213 73 20 C71.80401859 21.66097689 70.60870446 23.32243446 69.4140625 24.984375 C60.26938894 37.69157909 60.26938894 37.69157909 58.26782227 39.9831543 C56.78598267 41.89166121 56.78598267 41.89166121 57.17138672 44.02880859 C58.02796346 46.06652239 58.98838829 47.73022008 60.2578125 49.5390625 C60.71551025 50.1976123 61.17320801 50.85616211 61.64477539 51.53466797 C62.13324951 52.22447754 62.62172363 52.91428711 63.125 53.625 C63.62056396 54.33414551 64.11612793 55.04329102 64.62670898 55.77392578 C65.61993291 57.19410847 66.61558163 58.61259875 67.61376953 60.02929688 C68.82268236 61.74792039 70.01979338 63.47483347 71.21484375 65.203125 C74.34472838 69.81757939 74.34472838 69.81757939 78 74 C79.79454828 76.76317193 81.51705553 79.56654147 83.24609375 82.37109375 C84.70292623 84.55472016 86.06345184 86.25296114 88 88 C83.18083428 90.79603858 78.44002304 90.40587196 73 90.4375 C72.00226563 90.47037109 71.00453125 90.50324219 69.9765625 90.53710938 C62.70811763 90.59069711 62.70811763 90.59069711 59.69140625 88.07421875 C58.85416016 86.55248047 58.85416016 86.55248047 58 85 C57.03531645 83.48355062 56.06466989 81.97088686 55.08984375 80.4609375 C53.49782201 77.90254462 51.91506633 75.33860335 50.33398438 72.7734375 C49.82029297 71.9484375 49.30660156 71.1234375 48.77734375 70.2734375 C48.31577881 69.52497559 47.85421387 68.77651367 47.37866211 68.00537109 C46.06690958 66.09732518 44.69191268 64.57264109 43 63 C42.05763861 64.30901395 41.12168577 65.622639 40.1875 66.9375 C39.53652344 67.83210938 38.88554688 68.72671875 38.21484375 69.6484375 C36.48374755 72.14003767 35.1074053 74.70011446 33.75390625 77.4140625 C27.71856199 88.93850574 27.71856199 88.93850574 22.7578125 90.87548828 C14.84973378 92.40246754 6.86992682 91.24151252 -1 90 C0.33635281 86.26879712 1.99143208 83.40797607 4.375 80.25 C8.52847524 74.66168786 12.55486909 68.99387098 16.54711914 63.28930664 C18.84156554 60.01985808 21.14717257 56.7722145 23.58203125 53.60546875 C24.31808594 52.64253906 25.05414062 51.67960937 25.8125 50.6875 C26.45832031 49.86636719 27.10414063 49.04523438 27.76953125 48.19921875 C29.16754839 46.14022923 29.16754839 46.14022923 28.94921875 44.078125 C27.61235498 41.15132859 25.86632859 38.68378442 24 36.0625 C23.17558667 34.89597082 22.35137337 33.72930026 21.52734375 32.5625 C21.10565918 31.96953125 20.68397461 31.3765625 20.24951172 30.765625 C18.32734405 28.04950218 16.44758395 25.30444029 14.5625 22.5625 C12.14619523 19.06184644 9.7083726 15.58382419 7.2109375 12.140625 C6.51762329 11.18240845 6.51762329 11.18240845 5.81030273 10.20483398 C4.91036153 8.96431393 4.00636112 7.72672629 3.09790039 6.49243164 C0 2.22071984 0 2.22071984 0 0 Z " fill="#192C35" transform="translate(656,412)"/>
<path d="M0 0 C0.33 0.66 0.66 1.32 1 2 C2.98 2 4.96 2 7 2 C7.33 34.34 7.66 66.68 8 100 C12.76637874 100.79439646 15.52998114 101.00671887 20.125 100.5 C25.41491494 100.0293882 30.26486767 100.18689455 35.53125 100.74609375 C40.91170802 101.13993358 46.2863776 101.0415289 51.67822266 100.96264648 C57.79665478 100.89832739 57.79665478 100.89832739 60 102 C60.33 101.34 60.66 100.68 61 100 C63.05312708 103.07969063 63.24997754 103.71968705 63.23046875 107.1953125 C63.22853516 107.99324219 63.22660156 108.79117188 63.22460938 109.61328125 C63.21236328 110.44214844 63.20011719 111.27101563 63.1875 112.125 C63.1865332 113.37990234 63.1865332 113.37990234 63.18554688 114.66015625 C63.14033163 120.85966837 63.14033163 120.85966837 62 122 C59.53551872 122.09500705 57.0992917 122.12556678 54.63452148 122.11352539 C53.85133828 122.11364593 53.06815508 122.11376646 52.26123905 122.11389065 C49.71449552 122.11314152 47.16782427 122.10551331 44.62109375 122.09765625 C43.05342647 122.09618683 41.48575869 122.09516612 39.91809082 122.09460449 C34.09121975 122.08935161 28.26435918 122.07539052 22.4375 122.0625 C9.423125 122.041875 -3.59125 122.02125 -17 122 C-17 82.4 -17 42.8 -17 2 C-11.39 2 -5.78 2 0 2 C0 1.34 0 0.68 0 0 Z " fill="#1B2C34" transform="translate(473,516)"/>
<path d="M0 0 C1.28317892 3.84953676 1.06643637 6.94738135 1 11 C2.175625 9.4221875 2.175625 9.4221875 3.375 7.8125 C8.28859945 2.20347233 13.4842349 -0.73088353 20.98046875 -1.3046875 C24.66159624 -1.36057375 28.32493805 -1.22050372 32 -1 C32 -0.01 32 0.98 32 2 C32.66 2.33 33.32 2.66 34 3 C33.67 3.33 33.34 3.66 33 4 C32.7889782 6.83707088 32.62392187 9.65897646 32.5 12.5 C32.13513514 20.86486486 32.13513514 20.86486486 31 22 C28.98035801 22.07244053 26.95832876 22.08377188 24.9375 22.0625 C23.28041016 22.04896484 23.28041016 22.04896484 21.58984375 22.03515625 C20.73519531 22.02355469 19.88054688 22.01195312 19 22 C18.67 22.66 18.34 23.32 18 24 C18 23.34 18 22.68 18 22 C16.55903414 22.42594588 15.12231288 22.86626633 13.6875 23.3125 C12.48673828 23.67794922 12.48673828 23.67794922 11.26171875 24.05078125 C8.88593789 25.04787062 7.75402699 26.16367262 6 28 C5.34 28 4.68 28 4 28 C2.70756464 32.1196377 1.73747375 35.66831683 2 40 C1.34 40 0.68 40 0 40 C0 56.5 0 73 0 90 C-7.59 90 -15.18 90 -23 90 C-23 60.3 -23 30.6 -23 0 C-5 -1 -5 -1 0 0 Z " fill="#1B2D34" transform="translate(749,548)"/>
<path d="M0 0 C2.21229608 3.56194531 2.24263265 6.45971401 2.22705078 10.60449219 C2.22734283 11.25856552 2.22763489 11.91263885 2.22793579 12.58653259 C2.22654676 14.74011683 2.21100608 16.89335149 2.1953125 19.046875 C2.19158084 20.54331269 2.18873459 22.03975283 2.18673706 23.53619385 C2.1791126 27.4686359 2.15947438 31.40092947 2.1373291 35.33331299 C2.11684506 39.34849031 2.10772988 43.3636917 2.09765625 47.37890625 C2.0762273 55.25267219 2.04210576 63.12631761 2 71 C1.505 70.01 1.505 70.01 1 69 C0.36908447 69.00523682 -0.26183105 69.01047363 -0.91186523 69.01586914 C-3.75373347 69.03657826 -6.59558588 69.04964066 -9.4375 69.0625 C-10.92733398 69.07506836 -10.92733398 69.07506836 -12.44726562 69.08789062 C-13.39150391 69.09111328 -14.33574219 69.09433594 -15.30859375 69.09765625 C-16.18314209 69.10289307 -17.05769043 69.10812988 -17.95874023 69.11352539 C-20 69 -20 69 -21 68 C-21.08651611 66.58429877 -21.10704904 65.164405 -21.09765625 63.74609375 C-21.09443359 62.89208984 -21.09121094 62.03808594 -21.08789062 61.15820312 C-21.07951172 60.26037109 -21.07113281 59.36253906 -21.0625 58.4375 C-21.05798828 57.53580078 -21.05347656 56.63410156 -21.04882812 55.70507812 C-21.03700225 53.46998686 -21.0205222 51.23502563 -21 49 C-20.01 48.505 -20.01 48.505 -19 48 C-18.67 36.12 -18.34 24.24 -18 12 C-17.67 12 -17.34 12 -17 12 C-17 29.49 -17 46.98 -17 65 C-12.05 65 -7.1 65 -2 65 C-2.04600342 63.20860596 -2.09200684 61.41721191 -2.1394043 59.5715332 C-2.28795879 53.64458907 -2.42214421 47.7174647 -2.54658794 41.78997517 C-2.62254295 38.19704865 -2.70421318 34.60444396 -2.79907227 31.01196289 C-2.89045 27.54328132 -2.96664801 24.07456431 -3.03244972 20.60530663 C-3.07362844 18.64143397 -3.13041322 16.67790861 -3.18742371 14.71443176 C-3.20767105 13.5135643 -3.2279184 12.31269684 -3.2487793 11.07543945 C-3.27320602 10.02064896 -3.29763275 8.96585846 -3.32279968 7.87910461 C-2.95229354 4.57449803 -1.89055945 2.70034115 0 0 Z " fill="#222F32" transform="translate(867,569)"/>
<path d="M0 0 C6.93 0 13.86 0 21 0 C21 38.94 21 77.88 21 118 C13.74 118 6.48 118 -1 118 C-1 117.34 -1 116.68 -1 116 C5.93 116 12.86 116 20 116 C20 78.05 20 40.1 20 1 C19.01 1.495 19.01 1.495 18 2 C12.72 2 7.44 2 2 2 C2 29.06 2 56.12 2 84 C-0.5119859 81.4880141 -0.23524138 79.97367159 -0.24884033 76.54733276 C-0.24164978 75.78776276 -0.23445923 75.02819275 -0.22705078 74.24560547 C-0.22734283 73.44552063 -0.22763489 72.64543579 -0.22793579 71.82110596 C-0.22653956 69.16969047 -0.2109647 66.51855406 -0.1953125 63.8671875 C-0.19158341 62.03158726 -0.18873595 60.19598502 -0.18673706 58.36038208 C-0.1790924 53.52372768 -0.1594368 48.68719297 -0.1373291 43.85058594 C-0.11688857 38.91733418 -0.10773919 33.98406313 -0.09765625 29.05078125 C-0.07619165 19.36712639 -0.04100277 9.68359186 0 0 Z " fill="#05090C" transform="translate(534,383)"/>
<path d="M0 0 C0.33 0 0.66 0 1 0 C1.80758601 10.94324207 2.14110079 21.80844743 2.11352539 32.77929688 C2.1132424 34.38754779 2.11340343 35.99579884 2.1139679 37.60404968 C2.11425151 41.91495986 2.10842617 46.22584146 2.10139394 50.53674507 C2.09508694 55.06237768 2.09455085 59.58801114 2.09336853 64.11364746 C2.09027667 72.65899375 2.08209257 81.20432704 2.07201904 89.74966764 C2.0607908 99.4886666 2.05533064 109.22766621 2.05032361 118.96667004 C2.03990786 138.97778724 2.02235052 158.9888928 2 179 C1.34 179.33 0.68 179.66 0 180 C-0.66 179.34 -1.32 178.68 -2 178 C-1.34 178 -0.68 178 0 178 C0 119.26 0 60.52 0 0 Z " fill="#4B88EF" transform="translate(263,451)"/>
<path d="M0 0 C0.33 0 0.66 0 1 0 C1 24.75 1 49.5 1 75 C6.28 75 11.56 75 17 75 C17 75.66 17 76.32 17 77 C11.06 77 5.12 77 -1 77 C-1.87406867 72.62965665 -2.12896163 69.03963708 -2.1328125 64.6171875 C-2.13376923 63.92110382 -2.13472595 63.22502014 -2.13571167 62.50784302 C-2.13638931 61.04380197 -2.13456419 59.57975785 -2.13037109 58.11572266 C-2.12500062 55.87525718 -2.13033847 53.63499068 -2.13671875 51.39453125 C-2.13605821 49.96874956 -2.13477755 48.54296799 -2.1328125 47.1171875 C-2.13168457 45.82409668 -2.13055664 44.53100586 -2.12939453 43.19873047 C-2 40 -2 40 -1 37 C-1.66 36.67 -2.32 36.34 -3 36 C-2.34 36 -1.68 36 -1 36 C-1.495 34.515 -1.495 34.515 -2 33 C-2.23420597 29.12910665 -2.18518385 25.2522272 -2.1875 21.375 C-2.19974609 20.31925781 -2.21199219 19.26351562 -2.22460938 18.17578125 C-2.23647401 11.79260712 -1.63704976 6.17290699 0 0 Z " fill="#0A1113" transform="translate(791,560)"/>
<path d="M0 0 C1.54204102 -0.0309375 1.54204102 -0.0309375 3.11523438 -0.0625 C4.09685547 -0.06765625 5.07847656 -0.0728125 6.08984375 -0.078125 C7.44710571 -0.09214355 7.44710571 -0.09214355 8.83178711 -0.10644531 C9.56792236 0.01118164 10.30405762 0.12880859 11.0625 0.25 C11.7225 1.24 12.3825 2.23 13.0625 3.25 C12.1875 5.9375 12.1875 5.9375 11.0625 8.25 C10.7325 8.25 10.4025 8.25 10.0625 8.25 C10.0625 5.94 10.0625 3.63 10.0625 1.25 C3.7925 1.25 -2.4775 1.25 -8.9375 1.25 C-8.6075 2.24 -8.2775 3.23 -7.9375 4.25 C-7.84651775 6.82076529 -7.81143962 9.36381035 -7.82397461 11.93432617 C-7.82382858 12.7150499 -7.82368256 13.49577362 -7.8235321 14.30015564 C-7.82422886 16.88112159 -7.83201018 19.4620154 -7.83984375 22.04296875 C-7.84170877 23.83230042 -7.84313228 25.6216326 -7.84413147 27.41096497 C-7.84795001 32.12097584 -7.85777467 36.83095589 -7.86883545 41.54095459 C-7.87906379 46.34696028 -7.88363214 51.15297094 -7.88867188 55.95898438 C-7.89939751 65.38933646 -7.91646601 74.81966567 -7.9375 84.25 C-8.2675 84.25 -8.5975 84.25 -8.9375 84.25 C-9.2675 61.15 -9.5975 38.05 -9.9375 14.25 C-10.2675 16.23 -10.5975 18.21 -10.9375 20.25 C-11.2675 20.25 -11.5975 20.25 -11.9375 20.25 C-11.96638514 17.10418577 -11.98425923 13.95840531 -12 10.8125 C-12.00837891 9.91466797 -12.01675781 9.01683594 -12.02539062 8.09179688 C-12.02861328 7.23779297 -12.03183594 6.38378906 -12.03515625 5.50390625 C-12.04301147 4.31776733 -12.04301147 4.31776733 -12.05102539 3.10766602 C-11.7446922 -1.90499898 -3.74061155 0.01869138 0 0 Z " fill="#1A323E" transform="translate(800.9375,547.75)"/>
<path d="M0 0 C0.33 0.99 0.66 1.98 1 3 C1.66 3 2.32 3 3 3 C3.15371555 11.04915301 3.30189705 19.09838053 3.4429636 27.14776421 C3.50863748 30.88518741 3.57623581 34.62255536 3.64819336 38.35986328 C3.71753258 41.96482565 3.78186742 45.56984541 3.84269524 49.17496109 C3.86681885 50.55213808 3.89276262 51.92928441 3.92053413 53.30639267 C3.95904661 55.23135306 3.99055769 57.1564497 4.02172852 59.08154297 C4.04171402 60.17852509 4.06169952 61.2755072 4.08229065 62.4057312 C4 65 4 65 3 67 C2.34 67 1.68 67 1 67 C0.67 44.89 0.34 22.78 0 0 Z " fill="#171A1A" transform="translate(709,568)"/>
<path d="M0 0 C0.66 0.33 1.32 0.66 2 1 C2.125 3.375 2.125 3.375 2 6 C0 8 0 8 -3.89892578 8.22705078 C-5.58108793 8.22673341 -7.26327019 8.21539396 -8.9453125 8.1953125 C-9.8303244 8.1924826 -10.7153363 8.18965271 -11.62716675 8.18673706 C-14.45991412 8.1755224 -17.29234784 8.1504157 -20.125 8.125 C-22.04296419 8.11497185 -23.96093333 8.10584572 -25.87890625 8.09765625 C-30.58605876 8.07557889 -35.29297616 8.04104045 -40 8 C-39.67 7.01 -39.34 6.02 -39 5 C-26.13 5 -13.26 5 0 5 C0 3.35 0 1.7 0 0 Z " fill="#24292A" transform="translate(603,578)"/>
<path d="M0 0 C0 3.39593478 -0.52165948 4.06619881 -2.5 6.6875 C-2.9640625 7.31011719 -3.428125 7.93273437 -3.90625 8.57421875 C-4.2671875 9.04472656 -4.628125 9.51523437 -5 10 C-1.70835171 10.02895225 1.58326399 10.0467823 4.875 10.0625 C5.81214844 10.07087891 6.74929688 10.07925781 7.71484375 10.08789062 C8.61074219 10.09111328 9.50664063 10.09433594 10.4296875 10.09765625 C11.25710449 10.10289307 12.08452148 10.10812988 12.93701172 10.11352539 C15.06411757 10.13352138 15.06411757 10.13352138 17 9 C16.67 10.65 16.34 12.3 16 14 C12.97950658 14.19613594 9.95894342 14.38214855 6.9375 14.5625 C6.08994141 14.61857422 5.24238281 14.67464844 4.36914062 14.73242188 C-0.60337287 15.02040528 -5.09776245 14.89796753 -10 14 C-8.43006215 8.97619887 -5.39884258 4.9530017 -2 1 C-1.34 0.67 -0.68 0.34 0 0 Z " fill="#2A2E2B" transform="translate(665,488)"/>
<path d="M0 0 C0.33 0 0.66 0 1 0 C2.81376023 12.54642404 3.03624948 24.36895909 2 37 C3.485 37.495 3.485 37.495 5 38 C2.28990218 38.90336594 0.46217395 39.16958326 -2.34375 39.28125 C-3.17777344 39.31863281 -4.01179687 39.35601563 -4.87109375 39.39453125 C-6.62369792 39.46484375 -8.37630208 39.53515625 -10.12890625 39.60546875 C-10.96292969 39.64285156 -11.79695312 39.68023438 -12.65625 39.71875 C-13.41744141 39.74904297 -14.17863281 39.77933594 -14.96289062 39.81054688 C-17.20129649 39.9409768 -17.20129649 39.9409768 -20 41 C-20 40.01 -20 39.02 -20 38 C-14.06 38 -8.12 38 -2 38 C-2 37.34 -2 36.68 -2 36 C-1.34 36 -0.68 36 0 36 C0 24.12 0 12.24 0 0 Z " fill="#2B302E" transform="translate(810,599)"/>
<path d="M0 0 C1.3293457 0.00483398 1.3293457 0.00483398 2.68554688 0.00976562 C3.59755859 0.01814453 4.50957031 0.02652344 5.44921875 0.03515625 C6.38056641 0.03966797 7.31191406 0.04417969 8.27148438 0.04882812 C10.55996248 0.06056391 12.84830683 0.07698262 15.13671875 0.09765625 C12.17786134 1.80068305 10.16517757 2.31360587 6.765625 2.1953125 C3.33646898 2.15821867 -0.05734295 2.17985713 -3.48046875 2.40625 C-4.2472998 2.45064209 -5.01413086 2.49503418 -5.80419922 2.54077148 C-8.51052483 3.27270517 -9.36803572 4.43804028 -10.92578125 6.72265625 C-11.1990625 7.51800781 -11.47234375 8.31335938 -11.75390625 9.1328125 C-13.29026587 13.23878768 -15.69651375 16.56668275 -18.17578125 20.16015625 C-19.06860228 21.48377245 -19.9605987 22.80794544 -20.8515625 24.1328125 C-21.51542969 25.11121094 -22.17929687 26.08960938 -22.86328125 27.09765625 C-23.53271484 25.39111328 -23.53271484 25.39111328 -23.86328125 23.09765625 C-22.79931641 20.83935547 -22.79931641 20.83935547 -21.15234375 18.40234375 C-20.56710937 17.52191406 -19.981875 16.64148438 -19.37890625 15.734375 C-18.755 14.82300781 -18.13109375 13.91164063 -17.48828125 12.97265625 C-16.271644 11.15788144 -15.05547479 9.34279273 -13.83984375 7.52734375 C-13.29408691 6.72538574 -12.74833008 5.92342773 -12.18603516 5.09716797 C-10.83635623 3.14422516 -10.83635623 3.14422516 -9.86328125 1.09765625 C-6.54992607 0.18971599 -3.4220938 -0.02207802 0 0 Z " fill="#383E38" transform="translate(725.86328125,411.90234375)"/>
<path d="M0 0 C2 3 2 3 1.625 5.1875 C1.41875 5.785625 1.2125 6.38375 1 7 C0.34 5.35 -0.32 3.7 -1 2 C-7.93 2 -14.86 2 -22 2 C-22 20.15 -22 38.3 -22 57 C-22.33 57 -22.66 57 -23 57 C-23 38.52 -23 20.04 -23 1 C-3.11041009 -0.52996845 -3.11041009 -0.52996845 0 0 Z " fill="#0F242F" transform="translate(481,383)"/>
<path d="M0 0 C3.37297324 1.39352674 4.82237564 2.78735676 6.69921875 5.89453125 C7.42395386 7.07196899 7.42395386 7.07196899 8.16333008 8.27319336 C8.66630615 9.11116455 9.16928223 9.94913574 9.6875 10.8125 C14.0365304 17.92207325 18.56334332 24.75756427 23.55078125 31.43359375 C25 34 25 34 24.59057617 36.16040039 C24.39568604 36.76746826 24.2007959 37.37453613 24 38 C21.47716999 34.23049909 18.95711395 30.45915119 16.4375 26.6875 C15.73302734 25.63498047 15.02855469 24.58246094 14.30273438 23.49804688 C1.38247699 4.14743098 1.38247699 4.14743098 0 0 Z " fill="#1D2324" transform="translate(505,424)"/>
<path d="M0 0 C0 13.53 0 27.06 0 41 C-0.33 41 -0.66 41 -1 41 C-1 38.03 -1 35.06 -1 32 C-1.66 31.67 -2.32 31.34 -3 31 C-3 21 -3 11 -3 1 C-1 0 -1 0 0 0 Z " fill="#161D1E" transform="translate(849,585)"/>
<path d="M0 0 C0 6.6 0 13.2 0 20 C-0.33 20 -0.66 20 -1 20 C-1.33 14.06 -1.66 8.12 -2 2 C-10.58466389 2 -15.64421006 2.38652603 -22.8125 6.6875 C-25.72366831 9.76502078 -27.32314858 13.14043138 -29 17 C-29.66 17 -30.32 17 -31 17 C-30.71034957 11.06216622 -28.12850429 7.95815339 -24 4 C-16.98015619 -1.26488286 -8.35683873 -0.08527386 0 0 Z " fill="#11181A" transform="translate(780,548)"/>
<path d="M0 0 C0.33 0 0.66 0 1 0 C1 1.98 1 3.96 1 6 C6.61 6 12.22 6 18 6 C18.66 4.68 19.32 3.36 20 2 C20.04254356 3.99954746 20.04080783 6.00041636 20 8 C19 9 19 9 16.95874023 9.11352539 C16.08419189 9.10828857 15.20964355 9.10305176 14.30859375 9.09765625 C13.36435547 9.09443359 12.42011719 9.09121094 11.44726562 9.08789062 C10.45404297 9.07951172 9.46082031 9.07113281 8.4375 9.0625 C7.44041016 9.05798828 6.44332031 9.05347656 5.41601562 9.04882812 C2.94395151 9.03700007 0.47200482 9.02051849 -2 9 C-2.25 3.375 -2.25 3.375 0 0 Z " fill="#2D3534" transform="translate(639,569)"/>
<path d="M0 0 C4.17962137 3.84435762 7.02503679 7.89551409 9.9375 12.75 C10.80756591 14.17250418 11.67865538 15.59438283 12.55078125 17.015625 C12.9679541 17.69818359 13.38512695 18.38074219 13.81494141 19.08398438 C16.10744091 22.79052251 18.54149429 26.40218677 21 30 C20.34 30.66 19.68 31.32 19 32 C16.52604167 28.2890625 14.05208333 24.578125 11.578125 20.8671875 C11.14306641 20.21588867 10.70800781 19.56458984 10.25976562 18.89355469 C9.45151775 17.67867668 8.64772235 16.46081783 7.84960938 15.23925781 C6.35180906 12.95365344 4.93903823 10.93903823 3 9 C0 3.57692308 0 3.57692308 0 0 Z " fill="#1F2423" transform="translate(513,468)"/>
<path d="M0 0 C7.80384405 0.56975781 15.59331659 0.49628108 23.41308594 0.40917969 C23.41308594 1.06917969 23.41308594 1.72917969 23.41308594 2.40917969 C7.90308594 2.40917969 -7.60691406 2.40917969 -23.58691406 2.40917969 C-15.98598449 -1.3912851 -8.326537 -0.63061568 0 0 Z " fill="#2F3534" transform="translate(505.5869140625,616.5908203125)"/>
<path d="M0 0 C0.33 0 0.66 0 1 0 C1 5.94 1 11.88 1 18 C6.28 18 11.56 18 17 18 C17 18.66 17 19.32 17 20 C11.06 20 5.12 20 -1 20 C-2.48418021 12.57909894 -2.35762628 7.07287883 0 0 Z " fill="#070B0C" transform="translate(791,617)"/>
<path d="M0 0 C2.69140625 1.59765625 2.69140625 1.59765625 4.69140625 3.59765625 C4.31640625 5.72265625 4.31640625 5.72265625 3.69140625 7.59765625 C2.04140625 5.94765625 0.39140625 4.29765625 -1.30859375 2.59765625 C-1.63859375 3.25765625 -1.96859375 3.91765625 -2.30859375 4.59765625 C-3.62859375 3.93765625 -4.94859375 3.27765625 -6.30859375 2.59765625 C-6.30859375 2.26765625 -6.30859375 1.93765625 -6.30859375 1.59765625 C-14.30598012 1.0999205 -14.30598012 1.0999205 -21.30859375 4.59765625 C-22.63468197 5.27862047 -23.96545976 5.95096211 -25.30859375 6.59765625 C-25.24609375 4.84765625 -25.24609375 4.84765625 -24.30859375 2.59765625 C-17.66790401 -2.96199097 -7.85677966 -3.33008725 0 0 Z " fill="#2E3535" transform="translate(685.30859375,563.40234375)"/>
<path d="M0 0 C1.54204102 -0.0309375 1.54204102 -0.0309375 3.11523438 -0.0625 C4.09685547 -0.06765625 5.07847656 -0.0728125 6.08984375 -0.078125 C7.44710571 -0.09214355 7.44710571 -0.09214355 8.83178711 -0.10644531 C9.56792236 0.01118164 10.30405762 0.12880859 11.0625 0.25 C11.7225 1.24 12.3825 2.23 13.0625 3.25 C12.1875 5.9375 12.1875 5.9375 11.0625 8.25 C10.7325 8.25 10.4025 8.25 10.0625 8.25 C10.0625 5.94 10.0625 3.63 10.0625 1.25 C3.7925 1.25 -2.4775 1.25 -8.9375 1.25 C-8.875625 3.725 -8.875625 3.725 -8.8125 6.25 C-8.79948101 11.2818401 -9.48757127 15.44711107 -10.9375 20.25 C-11.2675 20.25 -11.5975 20.25 -11.9375 20.25 C-11.96638514 17.10418577 -11.98425923 13.95840531 -12 10.8125 C-12.00837891 9.91466797 -12.01675781 9.01683594 -12.02539062 8.09179688 C-12.02861328 7.23779297 -12.03183594 6.38378906 -12.03515625 5.50390625 C-12.04301147 4.31776733 -12.04301147 4.31776733 -12.05102539 3.10766602 C-11.7446922 -1.90499898 -3.74061155 0.01869138 0 0 Z " fill="#272E2B" transform="translate(800.9375,547.75)"/>
<path d="M0 0 C0.33 0.99 0.66 1.98 1 3 C-0.50465081 5.43765278 -2.0301883 7.66086402 -3.75 9.9375 C-4.20632813 10.55818359 -4.66265625 11.17886719 -5.1328125 11.81835938 C-6.99775102 14.34896237 -8.88321204 16.85264838 -10.8359375 19.31640625 C-12.21122079 20.93423884 -12.21122079 20.93423884 -11.875 23 C-10.87137069 25.29400986 -9.58559997 27.06970438 -8 29 C-8.33 29.66 -8.66 30.32 -9 31 C-12.56032554 27.80483606 -14.64541235 25.85077737 -15 21 C-14.05957031 18.93530273 -14.05957031 18.93530273 -12.578125 16.93359375 C-12.04703125 16.20076172 -11.5159375 15.46792969 -10.96875 14.71289062 C-10.11796875 13.58657227 -10.11796875 13.58657227 -9.25 12.4375 C-8.69828125 11.68275391 -8.1465625 10.92800781 -7.578125 10.15039062 C-6.06681207 8.08868368 -4.53817239 6.04171007 -3 4 C-1.99993043 2.66671885 -0.99991092 1.33340014 0 0 Z " fill="#212726" transform="translate(725,433)"/>
<path d="M0 0 C-4.07127643 6.55258692 -8.24505598 12.92133531 -13 19 C-13.33 18.01 -13.66 17.02 -14 16 C-12.6015625 13.66015625 -12.6015625 13.66015625 -10.625 11.0625 C-8.15239559 7.79688899 -7.01340253 6.05361011 -6 2 C-12.27 2 -18.54 2 -25 2 C-25 1.67 -25 1.34 -25 1 C-21.77093849 0.83125405 -18.54173589 0.66537263 -15.3125 0.5 C-14.40048828 0.45230469 -13.48847656 0.40460938 -12.54882812 0.35546875 C-11.66259766 0.31035156 -10.77636719 0.26523437 -9.86328125 0.21875 C-9.05157471 0.17685547 -8.23986816 0.13496094 -7.40356445 0.09179688 C-4.93328996 -0.00254779 -2.47182511 -0.01538879 0 0 Z " fill="#191D1C" transform="translate(742,413)"/>
<path d="M0 0 C1.35568336 0.00333092 1.35568336 0.00333092 2.73875427 0.00672913 C3.75973709 0.00680466 4.78071991 0.00688019 5.8326416 0.00695801 C6.94304306 0.01211929 8.05344452 0.01728058 9.19749451 0.02259827 C10.89336952 0.02472069 10.89336952 0.02472069 12.62350464 0.02688599 C16.25105891 0.03250433 19.8785525 0.04505994 23.50608826 0.05775452 C25.95856133 0.06276715 28.41103536 0.06733047 30.86351013 0.07142639 C36.89022371 0.08247971 42.91690165 0.09923568 48.94358826 0.12025452 C48.94358826 0.45025452 48.94358826 0.78025452 48.94358826 1.12025452 C47.64622742 1.14531067 46.34886658 1.17036682 45.01219177 1.19618225 C40.21699969 1.29007204 35.42195876 1.39033701 30.62693787 1.49256897 C28.54819768 1.53598786 26.46942023 1.57765763 24.39060974 1.61756897 C21.40945681 1.67510373 18.42849276 1.73884571 15.44749451 1.80384827 C14.04437767 1.82891701 14.04437767 1.82891701 12.61291504 1.85449219 C11.75209824 1.87443741 10.89128143 1.89438263 10.00437927 1.91493225 C8.86187462 1.93824867 8.86187462 1.93824867 7.69628906 1.96203613 C5.91623819 1.9340478 5.91623819 1.9340478 4.94358826 3.12025452 C2.6041409 2.83295396 0.26967396 2.50088672 -2.05641174 2.12025452 C-2.05641174 3.77025452 -2.05641174 5.42025452 -2.05641174 7.12025452 C-2.38641174 7.12025452 -2.71641174 7.12025452 -3.05641174 7.12025452 C-3.09895531 5.12070706 -3.09721957 3.11983815 -3.05641174 1.12025452 C-2.05641174 0.12025452 -2.05641174 0.12025452 0 0 Z " fill="#07131A" transform="translate(591.0564117431641,461.87974548339844)"/>
<path d="M0 0 C7.92 0.33 15.84 0.66 24 1 C24 1.33 24 1.66 24 2 C17.07 2 10.14 2 3 2 C5.64 5.96 8.28 9.92 11 14 C10.67 14.66 10.34 15.32 10 16 C5.84016104 12.19671867 2.50143634 8.08802795 0 3 C0 2.01 0 1.02 0 0 Z " fill="#111415" transform="translate(658,413)"/>
<path d="M0 0 C3.88692891 3.71152598 7.19622584 7.60746893 10.375 11.9375 C10.83777344 12.53240234 11.30054688 13.12730469 11.77734375 13.74023438 C14.07207689 16.87408635 15.03031891 18.50535255 14.7890625 22.44140625 C14.52867187 23.28574219 14.26828125 24.13007813 14 25 C13.67 25 13.34 25 13 25 C12.7628125 24.14792969 12.525625 23.29585938 12.28125 22.41796875 C10.85654758 18.61731443 8.86246941 15.56938674 6.5 12.3125 C5.69787149 11.18362585 4.89578667 10.05472065 4.09375 8.92578125 C3.4028125 7.96027344 2.711875 6.99476563 2 6 C0 3 0 3 0 0 Z " fill="#1C2223" transform="translate(673,435)"/>
<path d="M0 0 C5.20001054 2.15690627 7.30852271 6.32092766 10.3125 10.875 C10.87517578 11.69097656 11.43785156 12.50695312 12.01757812 13.34765625 C12.54416016 14.13785156 13.07074219 14.92804688 13.61328125 15.7421875 C14.09579346 16.4626123 14.57830566 17.18303711 15.07543945 17.92529297 C16.18500346 20.41514639 15.93876875 21.4926154 15 24 C14.65219482 23.47567383 14.30438965 22.95134766 13.94604492 22.41113281 C12.36109015 20.02327158 10.77431366 17.63662631 9.1875 15.25 C8.64029297 14.425 8.09308594 13.6 7.52929688 12.75 C6.99755859 11.95078125 6.46582031 11.1515625 5.91796875 10.328125 C5.43094482 9.5949707 4.9439209 8.86181641 4.44213867 8.10644531 C3.4485337 6.65514623 2.40292661 5.2385603 1.31762695 3.85449219 C0 2 0 2 0 0 Z " fill="#1C2223" transform="translate(486,395)"/>
<path d="M0 0 C0.99 0.33 1.98 0.66 3 1 C3.33 1.99 3.66 2.98 4 4 C0.86149936 4.92553743 -1.93680778 5.11664647 -5.203125 5.09765625 C-6.1828125 5.09443359 -7.1625 5.09121094 -8.171875 5.08789062 C-9.18765625 5.07951172 -10.2034375 5.07113281 -11.25 5.0625 C-12.796875 5.05573242 -12.796875 5.05573242 -14.375 5.04882812 C-16.91672573 5.03706088 -19.45833319 5.02062011 -22 5 C-22.33 4.34 -22.66 3.68 -23 3 C-15.41 2.67 -7.82 2.34 0 2 C0 1.34 0 0.68 0 0 Z " fill="#3C413B" transform="translate(740,497)"/>
<path d="M0 0 C5.00027214 5.00027214 4.04492839 11.25350227 4.0625 18.0625 C4.04669585 19.70838931 4.02768522 21.35426767 4 23 C3.01 23 2.02 23 1 23 C0.67 15.41 0.34 7.82 0 0 Z " fill="#212627" transform="translate(650,441)"/>
<path d="M0 0 C0.33 0.99 0.66 1.98 1 3 C1.66 3 2.32 3 3 3 C3.19600577 5.22843488 3.38146569 7.45779893 3.5625 9.6875 C3.66691406 10.92886719 3.77132812 12.17023437 3.87890625 13.44921875 C3.98493841 16.55835533 3.77228525 19.00810972 3 22 C0.03 21.67 -2.94 21.34 -6 21 C-6 20.67 -6 20.34 -6 20 C-3.69 20 -1.38 20 1 20 C0.67 13.4 0.34 6.8 0 0 Z " fill="#191C1B" transform="translate(622,578)"/>
<path d="M0 0 C0.33 0 0.66 0 1 0 C1.02505615 0.99443115 1.0501123 1.9888623 1.07592773 3.01342773 C1.16984882 6.69048747 1.27010619 10.3673515 1.37231445 14.04418945 C1.41572146 15.637893 1.45739219 17.2316448 1.49731445 18.82543945 C1.55487807 21.11163908 1.61861149 23.39759449 1.68359375 25.68359375 C1.70030624 26.40026718 1.71701874 27.11694061 1.73423767 27.85533142 C1.55018654 31.21527382 1.55018654 31.21527382 3 34 C3.23363881 35.84891946 3.41303635 37.70488031 3.5625 39.5625 C3.64628906 40.57441406 3.73007813 41.58632813 3.81640625 42.62890625 C3.87699219 43.41136719 3.93757812 44.19382812 4 45 C0.13689232 39.20533847 -0.290665 33.39832173 -0.1953125 26.66015625 C-0.1924826 25.89319931 -0.18965271 25.12624237 -0.18673706 24.33604431 C-0.17563475 21.91136379 -0.15054967 19.48706691 -0.125 17.0625 C-0.1149573 15.4082085 -0.10583372 13.75391115 -0.09765625 12.09960938 C-0.07572817 8.06626077 -0.04126843 4.0331952 0 0 Z " fill="#1BA0EE" transform="translate(166,504)"/>
<path d="M0 0 C0.33 0 0.66 0 1 0 C1 7.26 1 14.52 1 22 C0.34 20.68 -0.32 19.36 -1 18 C-1.66 17.67 -2.32 17.34 -3 17 C-2.88630789 14.54066009 -2.75957349 12.0832091 -2.625 9.625 C-2.5940625 8.92632813 -2.563125 8.22765625 -2.53125 7.5078125 C-2.2265625 2.2265625 -2.2265625 2.2265625 0 0 Z " fill="#232929" transform="translate(541,584)"/>
<path d="M0 0 C0.66 0.33 1.32 0.66 2 1 C1.38511719 1.87011719 1.38511719 1.87011719 0.7578125 2.7578125 C-2.21028607 7.06084535 -4.68426126 10.8686189 -6 16 C-6.66 16 -7.32 16 -8 16 C-8 19.3 -8 22.6 -8 26 C-8.33 26 -8.66 26 -9 26 C-9.45763448 16.77951278 -8.89095615 10.18493634 -2.8125 3 C-1.88585431 1.98993366 -0.95215793 0.98605352 0 0 Z " fill="#292E2E" transform="translate(642,593)"/>
<path d="M0 0 C-2.69238313 0.73428631 -4.98632679 1.08084646 -7.8125 1.3125 C-13.58841089 2.0116326 -17.5391765 4.35189144 -21.4375 8.75 C-22.2109375 9.86375 -22.2109375 9.86375 -23 11 C-22.70802098 7.59357814 -22.05504603 6.06799804 -19.875 3.375 C-12.98625562 -2.31570188 -8.227238 -2.30097803 0 0 Z " fill="#262C2C" transform="translate(837,566)"/>
<path d="M0 0 C0 3.48422545 -0.63275521 4.25162962 -2.625 7.01171875 C-3.16640625 7.76904297 -3.7078125 8.52636719 -4.265625 9.30664062 C-4.83796875 10.09232422 -5.4103125 10.87800781 -6 11.6875 C-6.57234375 12.48478516 -7.1446875 13.28207031 -7.734375 14.10351562 C-9.15002471 16.07362813 -10.57205471 18.03879057 -12 20 C-12.63989258 18.22729492 -12.63989258 18.22729492 -13 16 C-12.13549805 14.18481445 -12.13549805 14.18481445 -10.76171875 12.36328125 C-10.27123047 11.70392578 -9.78074219 11.04457031 -9.27539062 10.36523438 C-8.75138672 9.68783203 -8.22738281 9.01042969 -7.6875 8.3125 C-7.17509766 7.62349609 -6.66269531 6.93449219 -6.13476562 6.22460938 C-2.31220403 1.15610201 -2.31220403 1.15610201 0 0 Z " fill="#1A2020" transform="translate(682,464)"/>
<path d="M0 0 C0.66 0 1.32 0 2 0 C2.05379226 2.95857409 2.09357093 5.91617721 2.125 8.875 C2.15013672 10.13763672 2.15013672 10.13763672 2.17578125 11.42578125 C2.18222656 12.23144531 2.18867187 13.03710938 2.1953125 13.8671875 C2.21102295 14.98262939 2.21102295 14.98262939 2.22705078 16.12060547 C2 18 2 18 0 20 C-0.81578949 13.67763143 -1.43041732 7.38030379 -1 1 C-0.67 0.67 -0.34 0.34 0 0 Z " fill="#131A1A" transform="translate(790,599)"/>
<path d="M0 0 C-3.37220401 2.248136 -6.63804748 3.16868014 -10.5 4.1875 C-11.51513672 4.47270508 -11.51513672 4.47270508 -12.55078125 4.76367188 C-15.89960881 5.65867411 -17.64298405 6.11900532 -21 5 C-20 3 -20 3 -17.8125 2.1484375 C-11.66072031 0.45669808 -6.37669221 -0.31360781 0 0 Z " fill="#1C2324" transform="translate(669,586)"/>
<path d="M0 0 C2.65260412 0.3682574 3.7939992 0.78386801 5.66796875 2.75 C9.42063991 8.30665447 10.78688065 12.28674045 11 19 C9.26763052 16.40144578 7.96469732 13.93239121 6.625 11.125 C4.76701501 7.34838363 2.77778993 4.18931436 0 1 C0 0.67 0 0.34 0 0 Z " fill="#1B2223" transform="translate(611,558)"/>
<path d="M0 0 C0.80566406 0.00322266 1.61132812 0.00644531 2.44140625 0.00976562 C3.70404297 0.02233398 3.70404297 0.02233398 4.9921875 0.03515625 C5.84167969 0.03966797 6.69117188 0.04417969 7.56640625 0.04882812 C9.66669659 0.06062751 11.7669508 0.07856319 13.8671875 0.09765625 C13.5371875 1.08765625 13.2071875 2.07765625 12.8671875 3.09765625 C6.2671875 3.09765625 -0.3328125 3.09765625 -7.1328125 3.09765625 C-5.46012425 -0.24772026 -3.43796896 -0.02421105 0 0 Z " fill="#373D3A" transform="translate(699.1328125,634.90234375)"/>
<path d="M0 0 C1.18142578 -0.03867187 1.18142578 -0.03867187 2.38671875 -0.078125 C3.33998047 0.08429688 3.33998047 0.08429688 4.3125 0.25 C6.3125 3.25 6.3125 3.25 5.9375 5.4375 C5.73125 6.035625 5.525 6.63375 5.3125 7.25 C4.6525 5.6 3.9925 3.95 3.3125 2.25 C-3.9475 2.25 -11.2075 2.25 -18.6875 2.25 C-18.6875 1.92 -18.6875 1.59 -18.6875 1.25 C-12.46782516 0.70407243 -6.24235972 0.18279238 0 0 Z " fill="#0E161B" transform="translate(476.6875,382.75)"/>
<path d="M0 0 C7.26 0.33 14.52 0.66 22 1 C15.50835195 4.24582403 9.94708475 4.30257839 3 3 C3 2.34 3 1.68 3 1 C2.01 0.67 1.02 0.34 0 0 Z " fill="#191D1D" transform="translate(599,501)"/>
<path d="M0 0 C1.2684375 -0.03867187 1.2684375 -0.03867187 2.5625 -0.078125 C5 0.25 5 0.25 9 3.25 C2.73 3.25 -3.54 3.25 -10 3.25 C-9 1.25 -9 1.25 -7.25 0.640625 C-4.80425088 0.21601578 -2.48231519 0.0454082 0 0 Z " fill="#1D2223" transform="translate(611,425.75)"/>
<path d="M0 0 C2.10390967 2.00633705 3.8054815 4.03495474 5.4375 6.4375 C7.40100596 9.24590852 9.47636438 11.66330035 12 14 C11.01 14.495 11.01 14.495 10 15 C6.25527661 13.22125639 4.60220707 11.77663095 3 8 C2.46375 7.34 1.9275 6.68 1.375 6 C0 4 0 4 0 0 Z " fill="#212627" transform="translate(573,480)"/>
<path d="M0 0 C0.66 0 1.32 0 2 0 C3.63429751 2.0944968 5.14167234 4.17782091 6.625 6.375 C7.25535156 7.27992188 7.25535156 7.27992188 7.8984375 8.203125 C11 12.73462865 11 12.73462865 11 15 C6.25 13.125 6.25 13.125 4 12 C4.33 11.34 4.66 10.68 5 10 C3.21293716 6.54912004 1.74146784 3.74146784 -1 1 C-0.67 0.67 -0.34 0.34 0 0 Z " fill="#1D2325" transform="translate(479,418)"/>
<path d="M0 0 C0.33 0 0.66 0 1 0 C1.58965466 4.64353043 2.09804145 9.25717669 2.25 13.9375 C2.27578125 14.66839844 2.3015625 15.39929688 2.328125 16.15234375 C2.21984375 16.76207031 2.1115625 17.37179687 2 18 C1.01 18.66 0.02 19.32 -1 20 C-1.02888514 16.85418577 -1.04675923 13.70840531 -1.0625 10.5625 C-1.07087891 9.66466797 -1.07925781 8.76683594 -1.08789062 7.84179688 C-1.09111328 6.98779297 -1.09433594 6.13378906 -1.09765625 5.25390625 C-1.10551147 4.06776733 -1.10551147 4.06776733 -1.11352539 2.85766602 C-1 1 -1 1 0 0 Z " fill="#2B312E" transform="translate(847,617)"/>
<path d="M0 0 C2.2837967 2.76363697 2.9836429 3.88345564 3.5 7.5625 C3 11 3 11 0.8125 12.9375 C-2.03812837 14.01440405 -3.98560902 14.25837637 -7 14 C-6.38125 13.71125 -5.7625 13.4225 -5.125 13.125 C-2.86674235 12.06279958 -2.86674235 12.06279958 -1 10 C-0.53837573 7.56747339 -0.53837573 7.56747339 -0.375 4.875 C-0.26285156 3.50988281 -0.26285156 3.50988281 -0.1484375 2.1171875 C-0.09945312 1.41851563 -0.05046875 0.71984375 0 0 Z " fill="#192124" transform="translate(690,569)"/>
<path d="M0 0 C0 0.66 0 1.32 0 2 C0.66 2.33 1.32 2.66 2 3 C-4.27 2.67 -10.54 2.34 -17 2 C-10.73974019 -1.1301299 -6.76292615 -1.0316328 0 0 Z " fill="#1B201F" transform="translate(847,547)"/>
<path d="M0 0 C0 0.66 0 1.32 0 2 C-3.83724172 2.90413673 -7.37502274 3.10576898 -11.3125 3.0625 C-12.38113281 3.05347656 -13.44976563 3.04445313 -14.55078125 3.03515625 C-15.35902344 3.02355469 -16.16726563 3.01195312 -17 3 C-16.67 2.34 -16.34 1.68 -16 1 C-10.80342022 -0.18205463 -5.30441982 -0.11286 0 0 Z " fill="#2E3331" transform="translate(674,637)"/>
<path d="M0 0 C2.62561109 -0.08074203 5.24875676 -0.1403623 7.875 -0.1875 C8.99455078 -0.22520508 8.99455078 -0.22520508 10.13671875 -0.26367188 C12.3046875 -0.29296875 12.3046875 -0.29296875 16 0 C16.66 0.99 17.32 1.98 18 3 C15.75059705 3.08119503 13.50035129 3.13927819 11.25 3.1875 C9.99703125 3.22230469 8.7440625 3.25710938 7.453125 3.29296875 C3.85890643 2.98802939 2.55274874 2.45605371 0 0 Z " fill="#303939" transform="translate(573,637)"/>
<path d="M0 0 C6.75 2.75 6.75 2.75 9 5 C8.625 7.125 8.625 7.125 8 9 C6.35 7.35 4.7 5.7 3 4 C2.67 4.66 2.34 5.32 2 6 C0.68 5.34 -0.64 4.68 -2 4 C-1.34 2.68 -0.68 1.36 0 0 Z " fill="#282F30" transform="translate(681,562)"/>
<path d="M0 0 C1.48831242 0.00667405 2.97660807 0.01863442 4.46484375 0.03515625 C5.22345703 0.03966797 5.98207031 0.04417969 6.76367188 0.04882812 C8.64326246 0.06064945 10.52281274 0.07858547 12.40234375 0.09765625 C12.40234375 0.42765625 12.40234375 0.75765625 12.40234375 1.09765625 C10.3515625 1.32552083 8.30078125 1.55338542 6.25 1.78125 C4.39094146 1.91652239 4.39094146 1.91652239 3.40234375 3.09765625 C1.06289639 2.8103557 -1.27157055 2.47828846 -3.59765625 2.09765625 C-3.59765625 3.74765625 -3.59765625 5.39765625 -3.59765625 7.09765625 C-3.92765625 7.09765625 -4.25765625 7.09765625 -4.59765625 7.09765625 C-4.64019981 5.09810879 -4.63846408 3.09723989 -4.59765625 1.09765625 C-3.59765625 0.09765625 -3.59765625 0.09765625 0 0 Z " fill="#131C20" transform="translate(592.59765625,461.90234375)"/>
<path d="M0 0 C3.62484999 -0.08681476 7.24943443 -0.14032721 10.875 -0.1875 C12.42380859 -0.22520508 12.42380859 -0.22520508 14.00390625 -0.26367188 C14.99003906 -0.27333984 15.97617187 -0.28300781 16.9921875 -0.29296875 C17.90339355 -0.3086792 18.81459961 -0.32438965 19.75341797 -0.34057617 C20.49479004 -0.22818604 21.23616211 -0.1157959 22 0 C22.66 0.99 23.32 1.98 24 3 C23.125 5.6875 23.125 5.6875 22 8 C21.67 8 21.34 8 21 8 C21 5.69 21 3.38 21 1 C14.07 1 7.14 1 0 1 C0 0.67 0 0.34 0 0 Z " fill="#4D534D" transform="translate(790,548)"/>
<path d="M0 0 C0.33 0 0.66 0 1 0 C1.144375 1.11375 1.28875 2.2275 1.4375 3.375 C1.78372035 6.82142047 1.78372035 6.82142047 3 9 C2.91075148 11.7235195 2.76646668 14.41013311 2.5625 17.125 C2.51029297 17.87910156 2.45808594 18.63320313 2.40429688 19.41015625 C2.27454996 21.2737937 2.13792512 23.13694996 2 25 C1.67 25 1.34 25 1 25 C0.15672251 16.64251778 -0.12190678 8.39802254 0 0 Z " fill="#080E10" transform="translate(810,586)"/>
<path d="M0 0 C3.67582287 2.45054858 3.6897383 3.9054322 5 8 C6.51553153 10.30166675 6.51553153 10.30166675 8 12 C6.68 12 5.36 12 4 12 C-0.57142857 4.71428571 -0.57142857 4.71428571 0 0 Z " fill="#232829" transform="translate(562,605)"/>
<path d="M0 0 C1.98 0.495 1.98 0.495 4 1 C3.67 6.61 3.34 12.22 3 18 C2.67 18 2.34 18 2 18 C2 13.05 2 8.1 2 3 C1.01 3 0.02 3 -1 3 C-0.67 2.01 -0.34 1.02 0 0 Z " fill="#101B20" transform="translate(530,617)"/>
<path d="M0 0 C3.96 1.98 3.96 1.98 8 4 C8 4.66 8 5.32 8 6 C9.65 6.33 11.3 6.66 13 7 C11.02 7.99 11.02 7.99 9 9 C8.1646875 8.3503125 8.1646875 8.3503125 7.3125 7.6875 C4.9971323 5.92072088 4.9971323 5.92072088 2.25 4.5 C1.5075 4.005 0.765 3.51 0 3 C0 2.01 0 1.02 0 0 Z " fill="#2C3231" transform="translate(642,631)"/>
<path d="M0 0 C3.67033927 3.27708863 5.69281189 6.71522208 8 11 C7.01 11 6.02 11 5 11 C3.61328125 9.35546875 3.61328125 9.35546875 2.3125 7.1875 C1.87550781 6.47980469 1.43851562 5.77210938 0.98828125 5.04296875 C0 3 0 3 0 0 Z " fill="#1E2323" transform="translate(505,456)"/>
<path d="M0 0 C1.32 0.33 2.64 0.66 4 1 C0.7 3.31 -2.6 5.62 -6 8 C-6.66 7.67 -7.32 7.34 -8 7 C-5.42215154 4.35247996 -3.08351902 2.05567935 0 0 Z " fill="#1B2022" transform="translate(590,415)"/>
<path d="M0 0 C-1.77945087 4.04420651 -4.39529673 7.46078487 -7 11 C-7.67578125 9.234375 -7.67578125 9.234375 -8 7 C-6.85546875 5.078125 -6.85546875 5.078125 -5.1875 3.25 C-4.64480469 2.63640625 -4.10210938 2.0228125 -3.54296875 1.390625 C-2 0 -2 0 0 0 Z " fill="#1D2425" transform="translate(555,558)"/>
<path d="M0 0 C0.33 0.66 0.66 1.32 1 2 C-1.57784846 4.64752004 -3.91648098 6.94432065 -7 9 C-7.66 8.34 -8.32 7.68 -9 7 C-6.03 4.69 -3.06 2.38 0 0 Z " fill="#7540EE" transform="translate(376,369)"/>
<path d="M0 0 C0.34675781 0.64453125 0.69351563 1.2890625 1.05078125 1.953125 C3.88060137 4.92471968 6.1641093 4.60235264 10.1875 4.75 C12.09595703 4.83507812 12.09595703 4.83507812 14.04296875 4.921875 C15.01878906 4.94765625 15.99460937 4.9734375 17 5 C17 5.33 17 5.66 17 6 C14.35409986 6.02684679 11.70846904 6.04676357 9.0625 6.0625 C7.93038086 6.07506836 7.93038086 6.07506836 6.77539062 6.08789062 C4.85005687 6.09652441 2.92464419 6.05224333 1 6 C0 5 0 5 -0.0625 2.4375 C-0.041875 1.633125 -0.02125 0.82875 0 0 Z " fill="#030506" transform="translate(692,631)"/>
<path d="M0 0 C-3.2153369 2.84433649 -5.73414068 3.65176659 -10 4 C-12.875 3.5625 -12.875 3.5625 -15 3 C-15 2.67 -15 2.34 -15 2 C-12.87707704 1.47076428 -10.75157949 0.95184623 -8.625 0.4375 C-7.44164062 0.14746094 -6.25828125 -0.14257812 -5.0390625 -0.44140625 C-2 -1 -2 -1 0 0 Z " fill="#333B3B" transform="translate(688,581)"/>
<path d="M0 0 C-4.5 3 -4.5 3 -9 6 C-9.66 5.67 -10.32 5.34 -11 5 C-4.74206349 -1.42261905 -4.74206349 -1.42261905 0 0 Z " fill="#1B2224" transform="translate(568,551)"/>
<path d="M0 0 C0 3.41321235 -0.66867466 4.39472885 -2.5 7.1875 C-2.9640625 7.90292969 -3.428125 8.61835938 -3.90625 9.35546875 C-4.2671875 9.89816406 -4.628125 10.44085938 -5 11 C-5.61328125 9.19921875 -5.61328125 9.19921875 -6 7 C-2.82191781 1.4109589 -2.82191781 1.4109589 0 0 Z " fill="#1B2121" transform="translate(708,428)"/>
<path d="M0 0 C0.99 0 1.98 0 3 0 C2.67 1.65 2.34 3.3 2 5 C1.34 5 0.68 5 0 5 C0 8.3 0 11.6 0 15 C-0.33 15 -0.66 15 -1 15 C-1.02715383 13.25008666 -1.04646551 11.50005055 -1.0625 9.75 C-1.07410156 8.77546875 -1.08570313 7.8009375 -1.09765625 6.796875 C-1.01195577 4.34241322 -0.70706066 2.33831086 0 0 Z " fill="#373E3D" transform="translate(634,604)"/>
<path d="M0 0 C-1.49097658 3.7952131 -3.75700849 5.61042731 -7 8 C-6.65930765 4.84859577 -6.41923159 3.39218439 -4.0625 1.1875 C-2 0 -2 0 0 0 Z " fill="#1D2527" transform="translate(823,551)"/>
<path d="M0 0 C2.8503026 3.20945602 3.43451699 5.49988548 3.6875 9.75 C3.75324219 10.73484375 3.81898438 11.7196875 3.88671875 12.734375 C3.92410156 13.48203125 3.96148437 14.2296875 4 15 C0.89809455 10.34714182 -0.33846504 5.58467324 0 0 Z " fill="#3CACEB" transform="translate(166,534)"/>
<path d="M0 0 C0.66 0.33 1.32 0.66 2 1 C-1.07999946 4.67230705 -3.2482602 5.56802365 -8 6 C-5.63404067 3.38499232 -3.13950774 1.61000397 0 0 Z " fill="#1B201F" transform="translate(610,629)"/>
<path d="M0 0 C0.33 0 0.66 0 1 0 C1 7.26 1 14.52 1 22 C0.67 22 0.34 22 0 22 C0 14.74 0 7.48 0 0 Z " fill="#394546" transform="translate(531,421)"/>
<path d="M0 0 C3 1 3 1 4.6875 3.875 C6 7 6 7 6 10 C5.34 10 4.68 10 4 10 C3.32845067 8.71086513 2.66291141 7.41859796 2 6.125 C1.62875 5.40570313 1.2575 4.68640625 0.875 3.9453125 C0 2 0 2 0 0 Z " fill="#1A2021" transform="translate(644,429)"/>
<path d="M0 0 C3.34998521 1.11666174 3.79340222 1.74694925 5.6875 4.5625 C6.12449219 5.20316406 6.56148437 5.84382813 7.01171875 6.50390625 C7.33785156 6.99761719 7.66398438 7.49132812 8 8 C7.67 8.66 7.34 9.32 7 10 C3.60582235 6.87378374 1.3937282 4.43458973 0 0 Z " fill="#272C2B" transform="translate(689,426)"/>
<path d="M0 0 C0.99 0 1.98 0 3 0 C3 0.66 3 1.32 3 2 C1.46875 3.2890625 1.46875 3.2890625 -0.5 4.625 C-1.1496875 5.07101562 -1.799375 5.51703125 -2.46875 5.9765625 C-2.9740625 6.31429687 -3.479375 6.65203125 -4 7 C-4.66 6.67 -5.32 6.34 -6 6 C-4 4 -2 2 0 0 Z " fill="#252C2B" transform="translate(686,629)"/>
<path d="M0 0 C3 1 3 1 4.75 3.375 C6 6 6 6 5 9 C0 3.375 0 3.375 0 0 Z " fill="#2B302E" transform="translate(544,616)"/>
<path d="M0 0 C-1.65 1.65 -3.3 3.3 -5 5 C-5.66 4.67 -6.32 4.34 -7 4 C-7 3.01 -7 2.02 -7 1 C-4.53721199 -0.231394 -2.7204945 -0.07159196 0 0 Z " fill="#15232A" transform="translate(652,555)"/>
<path d="M0 0 C0.75 1.625 0.75 1.625 1 4 C-0.8125 7.25 -0.8125 7.25 -3 10 C-3.66 10 -4.32 10 -5 10 C-3.66511872 6.40608886 -2.03977277 3.24509304 0 0 Z " fill="#1E2121" transform="translate(695,475)"/>
<path d="M0 0 C5.57142857 5.14285714 5.57142857 5.14285714 6 9 C4.35 8.67 2.7 8.34 1 8 C1 7.01 1 6.02 1 5 C0.68911632 3.32900023 0.35919668 1.66128463 0 0 Z " fill="#191F1F" transform="translate(497,444)"/>
<path d="M0 0 C0 3 0 3 -2.5 5.6875 C-3.325 6.450625 -4.15 7.21375 -5 8 C-6.32 7.34 -7.64 6.68 -9 6 C-8.071875 5.566875 -7.14375 5.13375 -6.1875 4.6875 C-3.52815927 3.27961373 -1.91894095 2.23876444 0 0 Z " fill="#2E3737" transform="translate(600,614)"/>
<path d="M0 0 C0.66 0 1.32 0 2 0 C1.5359375 1.1446875 1.5359375 1.1446875 1.0625 2.3125 C0.32106407 4.18789677 -0.36228217 6.08684652 -1 8 C-1.66 8 -2.32 8 -3 8 C-3.33 8.66 -3.66 9.32 -4 10 C-3.43697042 6.05879291 -2.3208055 3.2491277 0 0 Z " fill="#191D1E" transform="translate(566,569)"/>
<path d="M0 0 C0 3.99904969 -1.72586967 5.80200422 -4 9 C-4.8125 7.3125 -4.8125 7.3125 -5 5 C-2.5625 2.25 -2.5625 2.25 0 0 Z " fill="#181E20" transform="translate(665,488)"/>
<path d="M0 0 C3.08089673 2.77280706 4.68775452 5.06326356 6 9 C2.83884224 7.63016497 2.0072908 7.0109362 0 4 C0 2.68 0 1.36 0 0 Z " fill="#1B2020" transform="translate(710,487)"/>
<path d="M0 0 C4.875 4.625 4.875 4.625 6 8 C5.01 8 4.02 8 3 8 C0.89229241 5.11165997 0 3.61537605 0 0 Z " fill="#1B2021" transform="translate(704,478)"/>
<path d="M0 0 C2 1.8125 2 1.8125 4 4 C4 4.99 4 5.98 4 7 C1.37812506 5.95125002 0.20628639 5.35068687 -1.25 2.875 C-1.4975 2.25625 -1.745 1.6375 -2 1 C-1.34 0.67 -0.68 0.34 0 0 Z " fill="#233137" transform="translate(594,478)"/>
<path d="M0 0 C0.33 0 0.66 0 1 0 C1 1.98 1 3.96 1 6 C1.99 6.33 2.98 6.66 4 7 C1.69 7 -0.62 7 -3 7 C-3 6.34 -3 5.68 -3 5 C-2.34 5 -1.68 5 -1 5 C-0.67 3.35 -0.34 1.7 0 0 Z " fill="#141816" transform="translate(811,630)"/>
<path d="M0 0 C4.31392226 0.4793247 6.16569547 1.7457985 9 5 C4.98525763 5 3.18024863 3.33218233 0 1 C0 0.67 0 0.34 0 0 Z " fill="#272E2C" transform="translate(554,629)"/>
<path d="M0 0 C0.66 0 1.32 0 2 0 C5 4.38461538 5 4.38461538 5 7 C3.68 6.67 2.36 6.34 1 6 C1 5.01 1 4.02 1 3 C0.34 2.67 -0.32 2.34 -1 2 C-0.67 1.34 -0.34 0.68 0 0 Z " fill="#252927" transform="translate(636,624)"/>
<path d="M0 0 C0.33 0 0.66 0 1 0 C1 1.98 1 3.96 1 6 C2.65 6 4.3 6 6 6 C6 6.33 6 6.66 6 7 C3.69 7.33 1.38 7.66 -1 8 C-1.125 2.25 -1.125 2.25 0 0 Z " fill="#050B0E" transform="translate(639,569)"/>
<path d="M0 0 C0.66 0.33 1.32 0.66 2 1 C1.125 6.75 1.125 6.75 0 9 C-0.66 9 -1.32 9 -2 9 C-1.34 6.03 -0.68 3.06 0 0 Z " fill="#703AEC" transform="translate(381,542)"/>
<path d="M0 0 C2.27521866 2.16687491 4.15794162 4.45620509 6 7 C5.67 7.66 5.34 8.32 5 9 C2.5 6.75 2.5 6.75 0 4 C0 2.68 0 1.36 0 0 Z " fill="#2B3130" transform="translate(483,388)"/>
<path d="M0 0 C0.99 0.33 1.98 0.66 3 1 C-2.75 6 -2.75 6 -5 6 C-3.63016497 2.83884224 -3.0109362 2.0072908 0 0 Z " fill="#7342EC" transform="translate(326,592)"/>
<path d="M0 0 C0 0.99 0 1.98 0 3 C-2.31 3.33 -4.62 3.66 -7 4 C-7.33 3.34 -7.66 2.68 -8 2 C-2.25 0 -2.25 0 0 0 Z " fill="#1F2524" transform="translate(630,499)"/>
<path d="M0 0 C0.33 0.99 0.66 1.98 1 3 C0.67 3.33 0.34 3.66 0 4 C1.65 4.33 3.3 4.66 5 5 C5 5.33 5 5.66 5 6 C2.36 6 -0.28 6 -3 6 C-1.125 1.125 -1.125 1.125 0 0 Z " fill="#262C2B" transform="translate(659,495)"/>
<path d="M0 0 C-0.33 0.66 -0.66 1.32 -1 2 C-3.97 2 -6.94 2 -10 2 C-3.6 -1.2 -3.6 -1.2 0 0 Z " fill="#121A1D" transform="translate(690,595)"/>
<path d="M0 0 C0 0.66 0 1.32 0 2 C0.66 2.33 1.32 2.66 2 3 C0.68 3.33 -0.64 3.66 -2 4 C-2 3.34 -2 2.68 -2 2 C-3.98 2.33 -5.96 2.66 -8 3 C-5.22569089 1.15046059 -3.35957737 0 0 0 Z " fill="#25353A" transform="translate(632,497)"/>
<path d="M0 0 C3.45925163 1.2491742 6.14693203 2.67527795 9 5 C6.75 5.25 6.75 5.25 4 5 C1.6875 3.0625 1.6875 3.0625 0 1 C0 0.67 0 0.34 0 0 Z " fill="#1A1F1F" transform="translate(586,495)"/>
<path d="M0 0 C1.88391785 3.26545761 2.49287967 6.28111761 3 10 C2.01 9.67 1.02 9.34 0 9 C-1.37001429 5.8033 -0.8252404 3.30096158 0 0 Z " fill="#293234" transform="translate(589,464)"/>
<path d="M0 0 C1.41687119 4.25061356 0.19320039 6.71851625 -1 11 C-1.33 11 -1.66 11 -2 11 C-2.05399736 9.54207116 -2.09279177 8.08357288 -2.125 6.625 C-2.15980469 5.40683594 -2.15980469 5.40683594 -2.1953125 4.1640625 C-2 2 -2 2 0 0 Z " fill="#121718" transform="translate(571,438)"/>
<path d="M0 0 C5.53846154 0.61538462 5.53846154 0.61538462 7.875 2.5625 C8.431875 3.2740625 8.431875 3.2740625 9 4 C5.65626525 3.44271087 2.96687001 2.64826111 0 1 C0 0.67 0 0.34 0 0 Z " fill="#1B2022" transform="translate(627,415)"/>
<path d="M0 0 C0.66 0.33 1.32 0.66 2 1 C0.35 2.65 -1.3 4.3 -3 6 C-3.66 5.34 -4.32 4.68 -5 4 C-3.35 2.68 -1.7 1.36 0 0 Z " fill="#7343EF" transform="translate(317,413)"/>
<path d="M0 0 C1.32 1.32 2.64 2.64 4 4 C2.68 4.33 1.36 4.66 0 5 C0 3.35 0 1.7 0 0 Z " fill="#3E4745" transform="translate(840,570)"/>
<path d="M0 0 C0.33 0 0.66 0 1 0 C1 2.31 1 4.62 1 7 C0.67 7 0.34 7 0 7 C0 4.69 0 2.38 0 0 Z " fill="#3A4547" transform="translate(688,598)"/>
<path d="M0 0 C0.66 0 1.32 0 2 0 C2 1.98 2 3.96 2 6 C1.67 6 1.34 6 1 6 C0.67 4.02 0.34 2.04 0 0 Z " fill="#3B4444" transform="translate(536,592)"/>
<path d="M0 0 C0.99 0.66 1.98 1.32 3 2 C1.02 2 -0.96 2 -3 2 C-2.01 1.34 -1.02 0.68 0 0 Z " fill="#52554D" transform="translate(541,379)"/>
<path d="M0 0 C0.99 0.99 1.98 1.98 3 3 C2.01 3.495 2.01 3.495 1 4 C0.67 2.68 0.34 1.36 0 0 Z " fill="#3A4547" transform="translate(481,425)"/>
<path d="M0 0 C0.99 1.485 0.99 1.485 2 3 C1.01 3.495 1.01 3.495 0 4 C0 2.68 0 1.36 0 0 Z " fill="#3B4542" transform="translate(664,481)"/>
<path d="M0 0 C0.66 0.33 1.32 0.66 2 1 C1.67 1.66 1.34 2.32 1 3 C0.34 2.34 -0.32 1.68 -1 1 C-0.67 0.67 -0.34 0.34 0 0 Z " fill="#364141" transform="translate(513,473)"/>
<path d="M0 0 C0.99 0.33 1.98 0.66 3 1 C2.01 1.33 1.02 1.66 0 2 C0 1.34 0 0.68 0 0 Z " fill="#384244" transform="translate(504,462)"/>
<path d="M0 0 C4 1 4 1 4 1 Z " fill="#50544A" transform="translate(845,639)"/>
<path d="M0 0 C4 1 4 1 4 1 Z " fill="#50564D" transform="translate(706,639)"/>
<path d="M0 0 C1 4 1 4 1 4 Z " fill="#3D4746" transform="translate(724,604)"/>
<path d="M0 0 C4 1 4 1 4 1 Z " fill="#3C4646" transform="translate(672,565)"/>
<path d="M0 0 C0.66 0.66 1.32 1.32 2 2 C1.01 1.67 0.02 1.34 -1 1 C-0.67 0.67 -0.34 0.34 0 0 Z " fill="#484E47" transform="translate(791,545)"/>
<path d="M0 0 C4 1 4 1 4 1 Z " fill="#3E4643" transform="translate(646,473)"/>
<path d="M0 0 C1 4 1 4 1 4 Z " fill="#384245" transform="translate(531,444)"/>
<path d="M0 0 C0.99 0.495 0.99 0.495 2 1 C1.67 1.66 1.34 2.32 1 3 C0.67 2.01 0.34 1.02 0 0 Z " fill="#3C4445" transform="translate(624,435)"/>
<path d="M0 0 C1 4 1 4 1 4 Z " fill="#404A49" transform="translate(531,398)"/>
<path d="M0 0 C4 1 4 1 4 1 Z " fill="#4F524D" transform="translate(474,380)"/>
<path d="M0 0 C3 1 3 1 3 1 Z " fill="#4F534A" transform="translate(808,639)"/>
<path d="M0 0 C3 1 3 1 3 1 Z " fill="#4E534A" transform="translate(512,639)"/>
<path d="M0 0 C3 1 3 1 3 1 Z " fill="#51534C" transform="translate(483,639)"/>
<path d="" fill="#494D45" transform="translate(0,0)"/>
<path d="" fill="#424946" transform="translate(0,0)"/>
<path d="" fill="#4D5048" transform="translate(0,0)"/>
<path d="M0 0 C0.66 0 1.32 0 2 0 C1.67 0.66 1.34 1.32 1 2 C0.67 1.34 0.34 0.68 0 0 Z " fill="#414943" transform="translate(632,624)"/>
<path d="M0 0 C0.66 0 1.32 0 2 0 C1.67 0.66 1.34 1.32 1 2 C0.67 1.34 0.34 0.68 0 0 Z " fill="#3C4644" transform="translate(537,603)"/>
<path d="" fill="#3A4545" transform="translate(0,0)"/>
<path d="" fill="#3A4344" transform="translate(0,0)"/>
<path d="" fill="#3D4645" transform="translate(0,0)"/>
<path d="M0 0 C0.66 0 1.32 0 2 0 C1.67 0.66 1.34 1.32 1 2 C0.67 1.34 0.34 0.68 0 0 Z " fill="#373F42" transform="translate(586,565)"/>
<path d="M0 0 C0.66 0.66 1.32 1.32 2 2 C1.34 2 0.68 2 0 2 C0 1.34 0 0.68 0 0 Z " fill="#434C48" transform="translate(690,545)"/>
<path d="M0 0 C0.66 0.66 1.32 1.32 2 2 C1.34 2 0.68 2 0 2 C0 1.34 0 0.68 0 0 Z " fill="#363F42" transform="translate(500,454)"/>
<path d="" fill="#3B4646" transform="translate(0,0)"/>
<path d="M0 0 C3 1 3 1 3 1 Z " fill="#394342" transform="translate(609,429)"/>
<path d="" fill="#3C4647" transform="translate(0,0)"/>
<path d="" fill="#3D4748" transform="translate(0,0)"/>
<path d="" fill="#8D6BC3" transform="translate(0,0)"/>
<path d="M0 0 C2 1 2 1 2 1 Z " fill="#4F544A" transform="translate(744,639)"/>
<path d="M0 0 C2 1 2 1 2 1 Z " fill="#505349" transform="translate(726,639)"/>
<path d="M0 0 C2 1 2 1 2 1 Z " fill="#4E534C" transform="translate(504,639)"/>
<path d="M0 0 C2 1 2 1 2 1 Z " fill="#54574F" transform="translate(471,639)"/>
<path d="M0 0 C2 1 2 1 2 1 Z " fill="#545750" transform="translate(464,639)"/>
<path d="M0 0 C2 1 2 1 2 1 Z " fill="#51564E" transform="translate(456,639)"/>
<path d="" fill="#535346" transform="translate(0,0)"/>
<path d="" fill="#4D5249" transform="translate(0,0)"/>
<path d="" fill="#4F534A" transform="translate(0,0)"/>
<path d="" fill="#3F4946" transform="translate(0,0)"/>
<path d="M0 0 C2 1 2 1 2 1 Z " fill="#3F4645" transform="translate(525,616)"/>
<path d="M0 0 C2 1 2 1 2 1 Z " fill="#3E4545" transform="translate(517,616)"/>
<path d="M0 0 C2 1 2 1 2 1 Z " fill="#404743" transform="translate(844,615)"/>
<path d="" fill="#3C4745" transform="translate(0,0)"/>
<path d="M0 0 C2 1 2 1 2 1 Z " fill="#3B4442" transform="translate(615,609)"/>
<path d="M0 0 C2 1 2 1 2 1 Z " fill="#3C4544" transform="translate(610,609)"/>
<path d="M0 0 C2 1 2 1 2 1 Z " fill="#3D4846" transform="translate(600,608)"/>
<path d="" fill="#3A4647" transform="translate(0,0)"/>
<path d="M0 0 C2 1 2 1 2 1 Z " fill="#3D4546" transform="translate(683,599)"/>
<path d="M0 0 C2 1 2 1 2 1 Z " fill="#384343" transform="translate(685,598)"/>
<path d="" fill="#3E4848" transform="translate(0,0)"/>
<path d="" fill="#3C4647" transform="translate(0,0)"/>
<path d="M0 0 C2 1 2 1 2 1 Z " fill="#3B4643" transform="translate(661,584)"/>
<path d="" fill="#3C4646" transform="translate(0,0)"/>
<path d="" fill="#3D4645" transform="translate(0,0)"/>
<path d="" fill="#394343" transform="translate(0,0)"/>
<path d="" fill="#3B4543" transform="translate(0,0)"/>
<path d="M0 0 C2 1 2 1 2 1 Z " fill="#3D494B" transform="translate(684,567)"/>
<path d="M0 0 C2 1 2 1 2 1 Z " fill="#3A4646" transform="translate(577,566)"/>
<path d="" fill="#3C4543" transform="translate(0,0)"/>
<path d="M0 0 C2 1 2 1 2 1 Z " fill="#3F4847" transform="translate(640,554)"/>
<path d="" fill="#404744" transform="translate(0,0)"/>
<path d="M0 0 C2 1 2 1 2 1 Z " fill="#424946" transform="translate(608,552)"/>
<path d="M0 0 C2 1 2 1 2 1 Z " fill="#464E49" transform="translate(742,546)"/>
<path d="M0 0 C2 1 2 1 2 1 Z " fill="#464D49" transform="translate(736,546)"/>
<path d="M0 0 C2 1 2 1 2 1 Z " fill="#434A4B" transform="translate(476,516)"/>
<path d="M0 0 C2 1 2 1 2 1 Z " fill="#3D4643" transform="translate(646,491)"/>
<path d="" fill="#3E4545" transform="translate(0,0)"/>
<path d="" fill="#3B4342" transform="translate(0,0)"/>
<path d="" fill="#3A4442" transform="translate(0,0)"/>
<path d="" fill="#4AB3E8" transform="translate(0,0)"/>
<path d="M0 0 C2 1 2 1 2 1 Z " fill="#3F4743" transform="translate(640,473)"/>
<path d="" fill="#394344" transform="translate(0,0)"/>
<path d="M0 0 C2 1 2 1 2 1 Z " fill="#343F42" transform="translate(496,450)"/>
<path d="" fill="#3D4746" transform="translate(0,0)"/>
<path d="" fill="#404843" transform="translate(0,0)"/>
<path d="" fill="#3D4445" transform="translate(0,0)"/>
<path d="M0 0 C2 1 2 1 2 1 Z " fill="#3A4344" transform="translate(601,431)"/>
<path d="" fill="#3F4646" transform="translate(0,0)"/>
<path d="" fill="#464E47" transform="translate(0,0)"/>
<path d="" fill="#595A4D" transform="translate(0,0)"/>
<path d="" fill="#3D4847" transform="translate(0,0)"/>
<path d="M0 0 C2 1 2 1 2 1 Z " fill="#3F4546" transform="translate(493,400)"/>
<path d="" fill="#8561EF" transform="translate(0,0)"/>
<path d="" fill="#434C4A" transform="translate(0,0)"/>
<path d="" fill="#474D4C" transform="translate(0,0)"/>
<path d="" fill="#464D49" transform="translate(0,0)"/>
<path d="M0 0 C2 1 2 1 2 1 Z " fill="#52564C" transform="translate(548,380)"/>
<path d="M0 0 C2 1 2 1 2 1 Z " fill="#51534A" transform="translate(534,380)"/>
<path d="" fill="#867346" transform="translate(0,0)"/>
<path d="" fill="#52564B" transform="translate(0,0)"/>
<path d="" fill="#555A4E" transform="translate(0,0)"/>
<path d="" fill="#54584F" transform="translate(0,0)"/>
<path d="" fill="#4C5049" transform="translate(0,0)"/>
<path d="" fill="#4C4E48" transform="translate(0,0)"/>
<path d="" fill="#4B4F48" transform="translate(0,0)"/>
<path d="" fill="#4D524A" transform="translate(0,0)"/>
<path d="" fill="#4F554D" transform="translate(0,0)"/>
<path d="" fill="#51554D" transform="translate(0,0)"/>
<path d="" fill="#52564E" transform="translate(0,0)"/>
<path d="" fill="#54564E" transform="translate(0,0)"/>
<path d="" fill="#52574F" transform="translate(0,0)"/>
<path d="" fill="#454B47" transform="translate(0,0)"/>
<path d="" fill="#4A534A" transform="translate(0,0)"/>
<path d="" fill="#4A524B" transform="translate(0,0)"/>
<path d="" fill="#4B5047" transform="translate(0,0)"/>
<path d="" fill="#454843" transform="translate(0,0)"/>
<path d="" fill="#505449" transform="translate(0,0)"/>
<path d="" fill="#50564C" transform="translate(0,0)"/>
<path d="" fill="#494F49" transform="translate(0,0)"/>
<path d="" fill="#474B47" transform="translate(0,0)"/>
<path d="" fill="#4A5048" transform="translate(0,0)"/>
<path d="" fill="#4A4D47" transform="translate(0,0)"/>
<path d="" fill="#484D44" transform="translate(0,0)"/>
<path d="" fill="#464D46" transform="translate(0,0)"/>
<path d="" fill="#53594B" transform="translate(0,0)"/>
<path d="" fill="#454B45" transform="translate(0,0)"/>
<path d="" fill="#484C46" transform="translate(0,0)"/>
<path d="" fill="#484C48" transform="translate(0,0)"/>
<path d="" fill="#484F48" transform="translate(0,0)"/>
<path d="" fill="#444B45" transform="translate(0,0)"/>
<path d="" fill="#3F4946" transform="translate(0,0)"/>
<path d="" fill="#454D49" transform="translate(0,0)"/>
<path d="" fill="#64A3DF" transform="translate(0,0)"/>
<path d="" fill="#454C49" transform="translate(0,0)"/>
<path d="" fill="#414845" transform="translate(0,0)"/>
<path d="" fill="#444C48" transform="translate(0,0)"/>
<path d="" fill="#414847" transform="translate(0,0)"/>
<path d="" fill="#3E4344" transform="translate(0,0)"/>
<path d="" fill="#404848" transform="translate(0,0)"/>
<path d="" fill="#3F4640" transform="translate(0,0)"/>
<path d="" fill="#3B4544" transform="translate(0,0)"/>
<path d="" fill="#3E4645" transform="translate(0,0)"/>
<path d="" fill="#3D4845" transform="translate(0,0)"/>
<path d="" fill="#3F484A" transform="translate(0,0)"/>
<path d="" fill="#3D4240" transform="translate(0,0)"/>
<path d="" fill="#3E4649" transform="translate(0,0)"/>
<path d="" fill="#3D4645" transform="translate(0,0)"/>
<path d="" fill="#434A47" transform="translate(0,0)"/>
<path d="" fill="#434746" transform="translate(0,0)"/>
<path d="" fill="#484C46" transform="translate(0,0)"/>
<path d="" fill="#3F4948" transform="translate(0,0)"/>
<path d="" fill="#8668E0" transform="translate(0,0)"/>
<path d="" fill="#3F4946" transform="translate(0,0)"/>
<path d="" fill="#3C4543" transform="translate(0,0)"/>
<path d="" fill="#3E4644" transform="translate(0,0)"/>
<path d="" fill="#8465E7" transform="translate(0,0)"/>
<path d="" fill="#3D4945" transform="translate(0,0)"/>
<path d="" fill="#8362E5" transform="translate(0,0)"/>
<path d="" fill="#394549" transform="translate(0,0)"/>
<path d="" fill="#3C4442" transform="translate(0,0)"/>
<path d="" fill="#3D4545" transform="translate(0,0)"/>
<path d="" fill="#3E4847" transform="translate(0,0)"/>
<path d="" fill="#384547" transform="translate(0,0)"/>
<path d="" fill="#55B1E7" transform="translate(0,0)"/>
<path d="" fill="#3A4340" transform="translate(0,0)"/>
<path d="" fill="#54B2E7" transform="translate(0,0)"/>
<path d="" fill="#414A45" transform="translate(0,0)"/>
<path d="" fill="#36403F" transform="translate(0,0)"/>
<path d="" fill="#3B4345" transform="translate(0,0)"/>
<path d="" fill="#52B1E7" transform="translate(0,0)"/>
<path d="" fill="#51B0E8" transform="translate(0,0)"/>
<path d="" fill="#3D4646" transform="translate(0,0)"/>
<path d="" fill="#3F4B45" transform="translate(0,0)"/>
<path d="" fill="#3D4646" transform="translate(0,0)"/>
<path d="" fill="#444A46" transform="translate(0,0)"/>
<path d="" fill="#3A4745" transform="translate(0,0)"/>
<path d="" fill="#3A4646" transform="translate(0,0)"/>
<path d="" fill="#3C4546" transform="translate(0,0)"/>
<path d="" fill="#3C4946" transform="translate(0,0)"/>
<path d="" fill="#3E4743" transform="translate(0,0)"/>
<path d="" fill="#56B3E5" transform="translate(0,0)"/>
<path d="" fill="#3B4444" transform="translate(0,0)"/>
<path d="" fill="#384342" transform="translate(0,0)"/>
<path d="" fill="#3C4747" transform="translate(0,0)"/>
<path d="" fill="#3D4643" transform="translate(0,0)"/>
<path d="" fill="#404846" transform="translate(0,0)"/>
<path d="" fill="#404746" transform="translate(0,0)"/>
<path d="" fill="#3D4444" transform="translate(0,0)"/>
<path d="" fill="#3D4546" transform="translate(0,0)"/>
<path d="" fill="#56B3E6" transform="translate(0,0)"/>
<path d="" fill="#3E4748" transform="translate(0,0)"/>
<path d="" fill="#394444" transform="translate(0,0)"/>
<path d="" fill="#835CE9" transform="translate(0,0)"/>
<path d="" fill="#3B4546" transform="translate(0,0)"/>
<path d="" fill="#3A4648" transform="translate(0,0)"/>
<path d="" fill="#3C4849" transform="translate(0,0)"/>
<path d="" fill="#56B5E6" transform="translate(0,0)"/>
<path d="" fill="#3D4645" transform="translate(0,0)"/>
<path d="" fill="#3B4746" transform="translate(0,0)"/>
<path d="" fill="#52B3E9" transform="translate(0,0)"/>
<path d="" fill="#3B4342" transform="translate(0,0)"/>
<path d="" fill="#384343" transform="translate(0,0)"/>
<path d="" fill="#3B4543" transform="translate(0,0)"/>
<path d="" fill="#845FE4" transform="translate(0,0)"/>
<path d="" fill="#3C4547" transform="translate(0,0)"/>
<path d="" fill="#3A4444" transform="translate(0,0)"/>
<path d="" fill="#3A4344" transform="translate(0,0)"/>
<path d="" fill="#3D4444" transform="translate(0,0)"/>
<path d="" fill="#3D4546" transform="translate(0,0)"/>
<path d="" fill="#384144" transform="translate(0,0)"/>
<path d="" fill="#3C4646" transform="translate(0,0)"/>
<path d="" fill="#394345" transform="translate(0,0)"/>
<path d="" fill="#394544" transform="translate(0,0)"/>
<path d="" fill="#3C4542" transform="translate(0,0)"/>
<path d="" fill="#3A4646" transform="translate(0,0)"/>
<path d="" fill="#515549" transform="translate(0,0)"/>
<path d="" fill="#434947" transform="translate(0,0)"/>
<path d="" fill="#3C4846" transform="translate(0,0)"/>
<path d="" fill="#464B48" transform="translate(0,0)"/>
<path d="" fill="#404945" transform="translate(0,0)"/>
<path d="" fill="#52B1E1" transform="translate(0,0)"/>
<path d="" fill="#454F48" transform="translate(0,0)"/>
<path d="" fill="#424947" transform="translate(0,0)"/>
<path d="" fill="#3E4745" transform="translate(0,0)"/>
<path d="" fill="#3E4442" transform="translate(0,0)"/>
<path d="" fill="#4D5146" transform="translate(0,0)"/>
<path d="" fill="#3D4945" transform="translate(0,0)"/>
<path d="" fill="#434943" transform="translate(0,0)"/>
<path d="" fill="#4F5149" transform="translate(0,0)"/>
<path d="" fill="#404B47" transform="translate(0,0)"/>
<path d="" fill="#424945" transform="translate(0,0)"/>
<path d="" fill="#3E4641" transform="translate(0,0)"/>
<path d="" fill="#494D47" transform="translate(0,0)"/>
<path d="" fill="#4E5247" transform="translate(0,0)"/>
<path d="" fill="#404A46" transform="translate(0,0)"/>
<path d="" fill="#474F48" transform="translate(0,0)"/>
<path d="" fill="#414745" transform="translate(0,0)"/>
<path d="" fill="#53554A" transform="translate(0,0)"/>
<path d="" fill="#484D47" transform="translate(0,0)"/>
<path d="" fill="#4B5249" transform="translate(0,0)"/>
<path d="" fill="#484B47" transform="translate(0,0)"/>
<path d="" fill="#444D48" transform="translate(0,0)"/>
<path d="" fill="#424A48" transform="translate(0,0)"/>
<path d="" fill="#4D544D" transform="translate(0,0)"/>
<path d="" fill="#4A5049" transform="translate(0,0)"/>
<path d="" fill="#46504A" transform="translate(0,0)"/>
<path d="" fill="#4F544D" transform="translate(0,0)"/>
<path d="" fill="#4B504A" transform="translate(0,0)"/>
<path d="" fill="#464D48" transform="translate(0,0)"/>
<path d="" fill="#47514D" transform="translate(0,0)"/>
<path d="" fill="#454D4A" transform="translate(0,0)"/>
<path d="" fill="#444E4A" transform="translate(0,0)"/>
<path d="" fill="#464E4A" transform="translate(0,0)"/>
<path d="" fill="#58B4E1" transform="translate(0,0)"/>
<path d="" fill="#52B4E4" transform="translate(0,0)"/>
<path d="" fill="#52B4E4" transform="translate(0,0)"/>
<path d="" fill="#4DB4E8" transform="translate(0,0)"/>
<path d="" fill="#4FB4E8" transform="translate(0,0)"/>
<path d="" fill="#504F48" transform="translate(0,0)"/>
<path d="" fill="#484D49" transform="translate(0,0)"/>
<path d="" fill="#474F49" transform="translate(0,0)"/>
<path d="" fill="#454A47" transform="translate(0,0)"/>
<path d="" fill="#474948" transform="translate(0,0)"/>
<path d="" fill="#3F4845" transform="translate(0,0)"/>
<path d="" fill="#444C45" transform="translate(0,0)"/>
<path d="" fill="#444D48" transform="translate(0,0)"/>
<path d="" fill="#474F4A" transform="translate(0,0)"/>
<path d="" fill="#424847" transform="translate(0,0)"/>
<path d="" fill="#454C4E" transform="translate(0,0)"/>
<path d="" fill="#464F56" transform="translate(0,0)"/>
<path d="" fill="#414A48" transform="translate(0,0)"/>
<path d="" fill="#414A46" transform="translate(0,0)"/>
<path d="" fill="#414945" transform="translate(0,0)"/>
<path d="" fill="#4DB4E8" transform="translate(0,0)"/>
<path d="" fill="#3F4743" transform="translate(0,0)"/>
<path d="" fill="#404846" transform="translate(0,0)"/>
<path d="" fill="#444946" transform="translate(0,0)"/>
<path d="" fill="#414943" transform="translate(0,0)"/>
<path d="" fill="#4E5445" transform="translate(0,0)"/>
<path d="" fill="#444D45" transform="translate(0,0)"/>
<path d="" fill="#3F4646" transform="translate(0,0)"/>
<path d="" fill="#3C4745" transform="translate(0,0)"/>
<path d="" fill="#4CB3E8" transform="translate(0,0)"/>
<path d="" fill="#3D4645" transform="translate(0,0)"/>
<path d="" fill="#394343" transform="translate(0,0)"/>
<path d="" fill="#394445" transform="translate(0,0)"/>
<path d="" fill="#474A45" transform="translate(0,0)"/>
<path d="" fill="#3B4645" transform="translate(0,0)"/>
<path d="" fill="#3E4647" transform="translate(0,0)"/>
<path d="" fill="#3E4645" transform="translate(0,0)"/>
<path d="" fill="#3A4444" transform="translate(0,0)"/>
<path d="" fill="#3C4745" transform="translate(0,0)"/>
<path d="" fill="#3D4745" transform="translate(0,0)"/>
<path d="" fill="#3B4442" transform="translate(0,0)"/>
<path d="" fill="#3C4345" transform="translate(0,0)"/>
<path d="" fill="#3E4643" transform="translate(0,0)"/>
<path d="" fill="#3B4643" transform="translate(0,0)"/>
<path d="" fill="#3B4141" transform="translate(0,0)"/>
<path d="" fill="#495249" transform="translate(0,0)"/>
<path d="" fill="#495046" transform="translate(0,0)"/>
<path d="" fill="#363F3E" transform="translate(0,0)"/>
<path d="" fill="#3C4440" transform="translate(0,0)"/>
<path d="" fill="#3A4346" transform="translate(0,0)"/>
<path d="" fill="#3C4344" transform="translate(0,0)"/>
<path d="" fill="#374142" transform="translate(0,0)"/>
<path d="" fill="#3B4041" transform="translate(0,0)"/>
<path d="" fill="#384443" transform="translate(0,0)"/>
<path d="" fill="#3D4647" transform="translate(0,0)"/>
<path d="" fill="#384345" transform="translate(0,0)"/>
<path d="" fill="#374141" transform="translate(0,0)"/>
<path d="" fill="#3A4141" transform="translate(0,0)"/>
<path d="" fill="#444A44" transform="translate(0,0)"/>
<path d="" fill="#3E4B45" transform="translate(0,0)"/>
<path d="" fill="#3D4643" transform="translate(0,0)"/>
<path d="" fill="#3D4644" transform="translate(0,0)"/>
<path d="" fill="#3A4344" transform="translate(0,0)"/>
<path d="" fill="#4AB3EA" transform="translate(0,0)"/>
<path d="" fill="#3B4447" transform="translate(0,0)"/>
<path d="" fill="#424843" transform="translate(0,0)"/>
<path d="" fill="#4BB3EB" transform="translate(0,0)"/>
<path d="" fill="#3C4745" transform="translate(0,0)"/>
<path d="" fill="#383F40" transform="translate(0,0)"/>
<path d="" fill="#354141" transform="translate(0,0)"/>
<path d="" fill="#3E4645" transform="translate(0,0)"/>
<path d="" fill="#36423E" transform="translate(0,0)"/>
<path d="" fill="#3A4543" transform="translate(0,0)"/>
<path d="" fill="#394242" transform="translate(0,0)"/>
<path d="" fill="#364240" transform="translate(0,0)"/>
<path d="" fill="#343E42" transform="translate(0,0)"/>
<path d="" fill="#4AB5EB" transform="translate(0,0)"/>
<path d="" fill="#3A4344" transform="translate(0,0)"/>
<path d="" fill="#384243" transform="translate(0,0)"/>
<path d="" fill="#4AB5EA" transform="translate(0,0)"/>
<path d="" fill="#454B46" transform="translate(0,0)"/>
<path d="" fill="#384241" transform="translate(0,0)"/>
<path d="" fill="#3B4342" transform="translate(0,0)"/>
<path d="" fill="#344041" transform="translate(0,0)"/>
<path d="" fill="#3D4645" transform="translate(0,0)"/>
<path d="" fill="#3C4746" transform="translate(0,0)"/>
<path d="" fill="#4BB4EB" transform="translate(0,0)"/>
<path d="" fill="#717CF1" transform="translate(0,0)"/>
<path d="" fill="#3E4849" transform="translate(0,0)"/>
<path d="" fill="#3D4544" transform="translate(0,0)"/>
<path d="" fill="#3B4443" transform="translate(0,0)"/>
<path d="" fill="#3C4747" transform="translate(0,0)"/>
<path d="" fill="#394142" transform="translate(0,0)"/>
<path d="" fill="#394445" transform="translate(0,0)"/>
<path d="" fill="#374041" transform="translate(0,0)"/>
<path d="" fill="#4CB5EA" transform="translate(0,0)"/>
<path d="" fill="#3C4546" transform="translate(0,0)"/>
<path d="" fill="#384143" transform="translate(0,0)"/>
<path d="" fill="#3A4545" transform="translate(0,0)"/>
<path d="" fill="#384344" transform="translate(0,0)"/>
<path d="" fill="#394144" transform="translate(0,0)"/>
<path d="" fill="#3B4545" transform="translate(0,0)"/>
<path d="" fill="#394241" transform="translate(0,0)"/>
<path d="" fill="#7476F0" transform="translate(0,0)"/>
<path d="" fill="#3B4B44" transform="translate(0,0)"/>
<path d="" fill="#3E4546" transform="translate(0,0)"/>
<path d="" fill="#374141" transform="translate(0,0)"/>
<path d="" fill="#3F4A47" transform="translate(0,0)"/>
<path d="" fill="#3A4343" transform="translate(0,0)"/>
<path d="" fill="#3B4646" transform="translate(0,0)"/>
<path d="" fill="#3C4749" transform="translate(0,0)"/>
<path d="" fill="#404747" transform="translate(0,0)"/>
<path d="" fill="#3C484A" transform="translate(0,0)"/>
<path d="" fill="#3D4A4B" transform="translate(0,0)"/>
<path d="" fill="#4DB5E8" transform="translate(0,0)"/>
<path d="" fill="#3F4746" transform="translate(0,0)"/>
<path d="" fill="#3B4141" transform="translate(0,0)"/>
<path d="" fill="#4A4E48" transform="translate(0,0)"/>
<path d="" fill="#4CACF0" transform="translate(0,0)"/>
<path d="" fill="#3F4745" transform="translate(0,0)"/>
<path d="" fill="#39413F" transform="translate(0,0)"/>
<path d="" fill="#3F4844" transform="translate(0,0)"/>
<path d="" fill="#3D4541" transform="translate(0,0)"/>
<path d="" fill="#3E4846" transform="translate(0,0)"/>
<path d="" fill="#4CB4E9" transform="translate(0,0)"/>
<path d="" fill="#49B0F2" transform="translate(0,0)"/>
<path d="" fill="#454C47" transform="translate(0,0)"/>
<path d="" fill="#414946" transform="translate(0,0)"/>
<path d="" fill="#424844" transform="translate(0,0)"/>
<path d="" fill="#8167F1" transform="translate(0,0)"/>
<path d="" fill="#414947" transform="translate(0,0)"/>
<path d="" fill="#55B2E1" transform="translate(0,0)"/>
<path d="" fill="#444945" transform="translate(0,0)"/>
<path d="" fill="#454B48" transform="translate(0,0)"/>
<path d="" fill="#404946" transform="translate(0,0)"/>
<path d="" fill="#3B4548" transform="translate(0,0)"/>
<path d="" fill="#3D4748" transform="translate(0,0)"/>
<path d="" fill="#3E4646" transform="translate(0,0)"/>
<path d="" fill="#4FB4E6" transform="translate(0,0)"/>
<path d="" fill="#4A5049" transform="translate(0,0)"/>
<path d="" fill="#585C4B" transform="translate(0,0)"/>
<path d="" fill="#4F534C" transform="translate(0,0)"/>
<path d="" fill="#4F514B" transform="translate(0,0)"/>
<path d="" fill="#52B1EE" transform="translate(0,0)"/>
<path d="" fill="#4C514A" transform="translate(0,0)"/>
<path d="" fill="#50B4E8" transform="translate(0,0)"/>
<path d="" fill="#8063EA" transform="translate(0,0)"/>
<path d="" fill="#3D4543" transform="translate(0,0)"/>
<path d="" fill="#805FED" transform="translate(0,0)"/>
<path d="" fill="#7F60EC" transform="translate(0,0)"/>
<path d="" fill="#46B1F2" transform="translate(0,0)"/>
<path d="" fill="#414A46" transform="translate(0,0)"/>
<path d="" fill="#4EB4EF" transform="translate(0,0)"/>
<path d="" fill="#52B5E5" transform="translate(0,0)"/>
<path d="" fill="#815FEA" transform="translate(0,0)"/>
<path d="" fill="#434B49" transform="translate(0,0)"/>
<path d="" fill="#434A4A" transform="translate(0,0)"/>
<path d="" fill="#454C4A" transform="translate(0,0)"/>
<path d="" fill="#48514E" transform="translate(0,0)"/>
<path d="" fill="#53554C" transform="translate(0,0)"/>
<path d="" fill="#50554D" transform="translate(0,0)"/>
<path d="" fill="#555652" transform="translate(0,0)"/>
<path d="" fill="#545757" transform="translate(0,0)"/>
<path d="" fill="#595958" transform="translate(0,0)"/>
<path d="" fill="#56584F" transform="translate(0,0)"/>
<path d="" fill="#8764E0" transform="translate(0,0)"/>
<path d="" fill="#68B0D3" transform="translate(0,0)"/>
</svg>
